<svg id="Background" xmlns="http://www.w3.org/2000/svg" xmlns:xlink="http://www.w3.org/1999/xlink" width="1301.59" height="694.348" viewBox="0 0 1301.59 694.348">
  <defs>
    <clipPath id="clip-path">
      <rect id="矩形_1099" data-name="矩形 1099" width="214" height="14" fill="#f0eff2"/>
    </clipPath>
    <clipPath id="clip-path-2">
      <rect width="284.333" height="19.165" fill="none"/>
    </clipPath>
  </defs>
  <path id="Background-2" data-name="Background" d="M44.43,0H1299.59V648.952H0L-2,46.129Z" transform="translate(2 45.348)" fill="#beb8b8"/>
  <rect id="矩形_1108" data-name="矩形 1108" width="64" height="601" transform="translate(0 93.348)" fill="#beb8b8"/>
  <path id="Background-3" data-name="Background" d="M62.467-5.348,1281.59-.761V688.952H0L2.95,60Z" transform="translate(20 5.348)" fill="#3c3a3a"/>
  <g id="Corner_Frame" data-name="Corner Frame" transform="translate(16.34 1.7)">
    <g id="Dash_Rectangle_" data-name="Dash Rectangle " transform="translate(75.66 16.648)">
      <g id="Dash_Rectangle_2" data-name="Dash Rectangle " clip-path="url(#clip-path)">
        <g id="重复网格_266" data-name="重复网格 266" transform="translate(-37.734 -3.281)" clip-path="url(#clip-path-2)">
          <g transform="translate(-1655.082 -353.225)">
            <line id="直线_64257" data-name="直线 64257" x2="23" y2="35" transform="translate(1655.5 353.5)" fill="none" stroke="#f0eff2" stroke-width="1"/>
          </g>
          <g transform="translate(-1651.082 -353.225)">
            <line id="直线_64257-2" data-name="直线 64257" x2="23" y2="35" transform="translate(1655.5 353.5)" fill="none" stroke="#f0eff2" stroke-width="1"/>
          </g>
          <g transform="translate(-1647.082 -353.225)">
            <line id="直线_64257-3" data-name="直线 64257" x2="23" y2="35" transform="translate(1655.5 353.5)" fill="none" stroke="#f0eff2" stroke-width="1"/>
          </g>
          <g transform="translate(-1643.082 -353.225)">
            <line id="直线_64257-4" data-name="直线 64257" x2="23" y2="35" transform="translate(1655.5 353.5)" fill="none" stroke="#f0eff2" stroke-width="1"/>
          </g>
          <g transform="translate(-1639.082 -353.225)">
            <line id="直线_64257-5" data-name="直线 64257" x2="23" y2="35" transform="translate(1655.5 353.5)" fill="none" stroke="#f0eff2" stroke-width="1"/>
          </g>
          <g transform="translate(-1635.082 -353.225)">
            <line id="直线_64257-6" data-name="直线 64257" x2="23" y2="35" transform="translate(1655.5 353.5)" fill="none" stroke="#f0eff2" stroke-width="1"/>
          </g>
          <g transform="translate(-1631.082 -353.225)">
            <line id="直线_64257-7" data-name="直线 64257" x2="23" y2="35" transform="translate(1655.5 353.5)" fill="none" stroke="#f0eff2" stroke-width="1"/>
          </g>
          <g transform="translate(-1627.082 -353.225)">
            <line id="直线_64257-8" data-name="直线 64257" x2="23" y2="35" transform="translate(1655.5 353.5)" fill="none" stroke="#f0eff2" stroke-width="1"/>
          </g>
          <g transform="translate(-1623.082 -353.225)">
            <line id="直线_64257-9" data-name="直线 64257" x2="23" y2="35" transform="translate(1655.5 353.5)" fill="none" stroke="#f0eff2" stroke-width="1"/>
          </g>
          <g transform="translate(-1619.082 -353.225)">
            <line id="直线_64257-10" data-name="直线 64257" x2="23" y2="35" transform="translate(1655.5 353.5)" fill="none" stroke="#f0eff2" stroke-width="1"/>
          </g>
          <g transform="translate(-1615.082 -353.225)">
            <line id="直线_64257-11" data-name="直线 64257" x2="23" y2="35" transform="translate(1655.5 353.5)" fill="none" stroke="#f0eff2" stroke-width="1"/>
          </g>
          <g transform="translate(-1611.082 -353.225)">
            <line id="直线_64257-12" data-name="直线 64257" x2="23" y2="35" transform="translate(1655.5 353.5)" fill="none" stroke="#f0eff2" stroke-width="1"/>
          </g>
          <g transform="translate(-1607.082 -353.225)">
            <line id="直线_64257-13" data-name="直线 64257" x2="23" y2="35" transform="translate(1655.5 353.5)" fill="none" stroke="#f0eff2" stroke-width="1"/>
          </g>
          <g transform="translate(-1603.082 -353.225)">
            <line id="直线_64257-14" data-name="直线 64257" x2="23" y2="35" transform="translate(1655.5 353.5)" fill="none" stroke="#f0eff2" stroke-width="1"/>
          </g>
          <g transform="translate(-1599.082 -353.225)">
            <line id="直线_64257-15" data-name="直线 64257" x2="23" y2="35" transform="translate(1655.5 353.5)" fill="none" stroke="#f0eff2" stroke-width="1"/>
          </g>
          <g transform="translate(-1595.082 -353.225)">
            <line id="直线_64257-16" data-name="直线 64257" x2="23" y2="35" transform="translate(1655.5 353.5)" fill="none" stroke="#f0eff2" stroke-width="1"/>
          </g>
          <g transform="translate(-1591.082 -353.225)">
            <line id="直线_64257-17" data-name="直线 64257" x2="23" y2="35" transform="translate(1655.5 353.5)" fill="none" stroke="#f0eff2" stroke-width="1"/>
          </g>
          <g transform="translate(-1587.082 -353.225)">
            <line id="直线_64257-18" data-name="直线 64257" x2="23" y2="35" transform="translate(1655.5 353.5)" fill="none" stroke="#f0eff2" stroke-width="1"/>
          </g>
          <g transform="translate(-1583.082 -353.225)">
            <line id="直线_64257-19" data-name="直线 64257" x2="23" y2="35" transform="translate(1655.5 353.5)" fill="none" stroke="#f0eff2" stroke-width="1"/>
          </g>
          <g transform="translate(-1579.082 -353.225)">
            <line id="直线_64257-20" data-name="直线 64257" x2="23" y2="35" transform="translate(1655.5 353.5)" fill="none" stroke="#f0eff2" stroke-width="1"/>
          </g>
          <g transform="translate(-1575.082 -353.225)">
            <line id="直线_64257-21" data-name="直线 64257" x2="23" y2="35" transform="translate(1655.5 353.5)" fill="none" stroke="#f0eff2" stroke-width="1"/>
          </g>
          <g transform="translate(-1571.082 -353.225)">
            <line id="直线_64257-22" data-name="直线 64257" x2="23" y2="35" transform="translate(1655.5 353.5)" fill="none" stroke="#f0eff2" stroke-width="1"/>
          </g>
          <g transform="translate(-1567.082 -353.225)">
            <line id="直线_64257-23" data-name="直线 64257" x2="23" y2="35" transform="translate(1655.5 353.5)" fill="none" stroke="#f0eff2" stroke-width="1"/>
          </g>
          <g transform="translate(-1563.082 -353.225)">
            <line id="直线_64257-24" data-name="直线 64257" x2="23" y2="35" transform="translate(1655.5 353.5)" fill="none" stroke="#f0eff2" stroke-width="1"/>
          </g>
          <g transform="translate(-1559.082 -353.225)">
            <line id="直线_64257-25" data-name="直线 64257" x2="23" y2="35" transform="translate(1655.5 353.5)" fill="none" stroke="#f0eff2" stroke-width="1"/>
          </g>
          <g transform="translate(-1555.082 -353.225)">
            <line id="直线_64257-26" data-name="直线 64257" x2="23" y2="35" transform="translate(1655.5 353.5)" fill="none" stroke="#f0eff2" stroke-width="1"/>
          </g>
          <g transform="translate(-1551.082 -353.225)">
            <line id="直线_64257-27" data-name="直线 64257" x2="23" y2="35" transform="translate(1655.5 353.5)" fill="none" stroke="#f0eff2" stroke-width="1"/>
          </g>
          <g transform="translate(-1547.082 -353.225)">
            <line id="直线_64257-28" data-name="直线 64257" x2="23" y2="35" transform="translate(1655.5 353.5)" fill="none" stroke="#f0eff2" stroke-width="1"/>
          </g>
          <g transform="translate(-1543.082 -353.225)">
            <line id="直线_64257-29" data-name="直线 64257" x2="23" y2="35" transform="translate(1655.5 353.5)" fill="none" stroke="#f0eff2" stroke-width="1"/>
          </g>
          <g transform="translate(-1539.082 -353.225)">
            <line id="直线_64257-30" data-name="直线 64257" x2="23" y2="35" transform="translate(1655.5 353.5)" fill="none" stroke="#f0eff2" stroke-width="1"/>
          </g>
          <g transform="translate(-1535.082 -353.225)">
            <line id="直线_64257-31" data-name="直线 64257" x2="23" y2="35" transform="translate(1655.5 353.5)" fill="none" stroke="#f0eff2" stroke-width="1"/>
          </g>
          <g transform="translate(-1531.082 -353.225)">
            <line id="直线_64257-32" data-name="直线 64257" x2="23" y2="35" transform="translate(1655.5 353.5)" fill="none" stroke="#f0eff2" stroke-width="1"/>
          </g>
          <g transform="translate(-1527.082 -353.225)">
            <line id="直线_64257-33" data-name="直线 64257" x2="23" y2="35" transform="translate(1655.5 353.5)" fill="none" stroke="#f0eff2" stroke-width="1"/>
          </g>
          <g transform="translate(-1523.082 -353.225)">
            <line id="直线_64257-34" data-name="直线 64257" x2="23" y2="35" transform="translate(1655.5 353.5)" fill="none" stroke="#f0eff2" stroke-width="1"/>
          </g>
          <g transform="translate(-1519.082 -353.225)">
            <line id="直线_64257-35" data-name="直线 64257" x2="23" y2="35" transform="translate(1655.5 353.5)" fill="none" stroke="#f0eff2" stroke-width="1"/>
          </g>
          <g transform="translate(-1515.082 -353.225)">
            <line id="直线_64257-36" data-name="直线 64257" x2="23" y2="35" transform="translate(1655.5 353.5)" fill="none" stroke="#f0eff2" stroke-width="1"/>
          </g>
          <g transform="translate(-1511.082 -353.225)">
            <line id="直线_64257-37" data-name="直线 64257" x2="23" y2="35" transform="translate(1655.5 353.5)" fill="none" stroke="#f0eff2" stroke-width="1"/>
          </g>
          <g transform="translate(-1507.082 -353.225)">
            <line id="直线_64257-38" data-name="直线 64257" x2="23" y2="35" transform="translate(1655.5 353.5)" fill="none" stroke="#f0eff2" stroke-width="1"/>
          </g>
          <g transform="translate(-1503.082 -353.225)">
            <line id="直线_64257-39" data-name="直线 64257" x2="23" y2="35" transform="translate(1655.5 353.5)" fill="none" stroke="#f0eff2" stroke-width="1"/>
          </g>
          <g transform="translate(-1499.082 -353.225)">
            <line id="直线_64257-40" data-name="直线 64257" x2="23" y2="35" transform="translate(1655.5 353.5)" fill="none" stroke="#f0eff2" stroke-width="1"/>
          </g>
          <g transform="translate(-1495.082 -353.225)">
            <line id="直线_64257-41" data-name="直线 64257" x2="23" y2="35" transform="translate(1655.5 353.5)" fill="none" stroke="#f0eff2" stroke-width="1"/>
          </g>
          <g transform="translate(-1491.082 -353.225)">
            <line id="直线_64257-42" data-name="直线 64257" x2="23" y2="35" transform="translate(1655.5 353.5)" fill="none" stroke="#f0eff2" stroke-width="1"/>
          </g>
          <g transform="translate(-1487.082 -353.225)">
            <line id="直线_64257-43" data-name="直线 64257" x2="23" y2="35" transform="translate(1655.5 353.5)" fill="none" stroke="#f0eff2" stroke-width="1"/>
          </g>
          <g transform="translate(-1483.082 -353.225)">
            <line id="直线_64257-44" data-name="直线 64257" x2="23" y2="35" transform="translate(1655.5 353.5)" fill="none" stroke="#f0eff2" stroke-width="1"/>
          </g>
          <g transform="translate(-1479.082 -353.225)">
            <line id="直线_64257-45" data-name="直线 64257" x2="23" y2="35" transform="translate(1655.5 353.5)" fill="none" stroke="#f0eff2" stroke-width="1"/>
          </g>
          <g transform="translate(-1475.082 -353.225)">
            <line id="直线_64257-46" data-name="直线 64257" x2="23" y2="35" transform="translate(1655.5 353.5)" fill="none" stroke="#f0eff2" stroke-width="1"/>
          </g>
          <g transform="translate(-1471.082 -353.225)">
            <line id="直线_64257-47" data-name="直线 64257" x2="23" y2="35" transform="translate(1655.5 353.5)" fill="none" stroke="#f0eff2" stroke-width="1"/>
          </g>
          <g transform="translate(-1467.082 -353.225)">
            <line id="直线_64257-48" data-name="直线 64257" x2="23" y2="35" transform="translate(1655.5 353.5)" fill="none" stroke="#f0eff2" stroke-width="1"/>
          </g>
          <g transform="translate(-1463.082 -353.225)">
            <line id="直线_64257-49" data-name="直线 64257" x2="23" y2="35" transform="translate(1655.5 353.5)" fill="none" stroke="#f0eff2" stroke-width="1"/>
          </g>
          <g transform="translate(-1459.082 -353.225)">
            <line id="直线_64257-50" data-name="直线 64257" x2="23" y2="35" transform="translate(1655.5 353.5)" fill="none" stroke="#f0eff2" stroke-width="1"/>
          </g>
          <g transform="translate(-1455.082 -353.225)">
            <line id="直线_64257-51" data-name="直线 64257" x2="23" y2="35" transform="translate(1655.5 353.5)" fill="none" stroke="#f0eff2" stroke-width="1"/>
          </g>
          <g transform="translate(-1451.082 -353.225)">
            <line id="直线_64257-52" data-name="直线 64257" x2="23" y2="35" transform="translate(1655.5 353.5)" fill="none" stroke="#f0eff2" stroke-width="1"/>
          </g>
          <g transform="translate(-1447.082 -353.225)">
            <line id="直线_64257-53" data-name="直线 64257" x2="23" y2="35" transform="translate(1655.5 353.5)" fill="none" stroke="#f0eff2" stroke-width="1"/>
          </g>
          <g transform="translate(-1443.082 -353.225)">
            <line id="直线_64257-54" data-name="直线 64257" x2="23" y2="35" transform="translate(1655.5 353.5)" fill="none" stroke="#f0eff2" stroke-width="1"/>
          </g>
          <g transform="translate(-1439.082 -353.225)">
            <line id="直线_64257-55" data-name="直线 64257" x2="23" y2="35" transform="translate(1655.5 353.5)" fill="none" stroke="#f0eff2" stroke-width="1"/>
          </g>
          <g transform="translate(-1435.082 -353.225)">
            <line id="直线_64257-56" data-name="直线 64257" x2="23" y2="35" transform="translate(1655.5 353.5)" fill="none" stroke="#f0eff2" stroke-width="1"/>
          </g>
          <g transform="translate(-1431.082 -353.225)">
            <line id="直线_64257-57" data-name="直线 64257" x2="23" y2="35" transform="translate(1655.5 353.5)" fill="none" stroke="#f0eff2" stroke-width="1"/>
          </g>
          <g transform="translate(-1427.082 -353.225)">
            <line id="直线_64257-58" data-name="直线 64257" x2="23" y2="35" transform="translate(1655.5 353.5)" fill="none" stroke="#f0eff2" stroke-width="1"/>
          </g>
          <g transform="translate(-1423.082 -353.225)">
            <line id="直线_64257-59" data-name="直线 64257" x2="23" y2="35" transform="translate(1655.5 353.5)" fill="none" stroke="#f0eff2" stroke-width="1"/>
          </g>
          <g transform="translate(-1419.082 -353.225)">
            <line id="直线_64257-60" data-name="直线 64257" x2="23" y2="35" transform="translate(1655.5 353.5)" fill="none" stroke="#f0eff2" stroke-width="1"/>
          </g>
          <g transform="translate(-1415.082 -353.225)">
            <line id="直线_64257-61" data-name="直线 64257" x2="23" y2="35" transform="translate(1655.5 353.5)" fill="none" stroke="#f0eff2" stroke-width="1"/>
          </g>
          <g transform="translate(-1411.082 -353.225)">
            <line id="直线_64257-62" data-name="直线 64257" x2="23" y2="35" transform="translate(1655.5 353.5)" fill="none" stroke="#f0eff2" stroke-width="1"/>
          </g>
          <g transform="translate(-1407.082 -353.225)">
            <line id="直线_64257-63" data-name="直线 64257" x2="23" y2="35" transform="translate(1655.5 353.5)" fill="none" stroke="#f0eff2" stroke-width="1"/>
          </g>
          <g transform="translate(-1403.082 -353.225)">
            <line id="直线_64257-64" data-name="直线 64257" x2="23" y2="35" transform="translate(1655.5 353.5)" fill="none" stroke="#f0eff2" stroke-width="1"/>
          </g>
          <g transform="translate(-1399.082 -353.225)">
            <line id="直线_64257-65" data-name="直线 64257" x2="23" y2="35" transform="translate(1655.5 353.5)" fill="none" stroke="#f0eff2" stroke-width="1"/>
          </g>
          <g transform="translate(-1395.082 -353.225)">
            <line id="直线_64257-66" data-name="直线 64257" x2="23" y2="35" transform="translate(1655.5 353.5)" fill="none" stroke="#f0eff2" stroke-width="1"/>
          </g>
          <g transform="translate(-1391.082 -353.225)">
            <line id="直线_64257-67" data-name="直线 64257" x2="23" y2="35" transform="translate(1655.5 353.5)" fill="none" stroke="#f0eff2" stroke-width="1"/>
          </g>
          <g transform="translate(-1387.082 -353.225)">
            <line id="直线_64257-68" data-name="直线 64257" x2="23" y2="35" transform="translate(1655.5 353.5)" fill="none" stroke="#f0eff2" stroke-width="1"/>
          </g>
          <g transform="translate(-1383.082 -353.225)">
            <line id="直线_64257-69" data-name="直线 64257" x2="23" y2="35" transform="translate(1655.5 353.5)" fill="none" stroke="#f0eff2" stroke-width="1"/>
          </g>
          <g transform="translate(-1379.082 -353.225)">
            <line id="直线_64257-70" data-name="直线 64257" x2="23" y2="35" transform="translate(1655.5 353.5)" fill="none" stroke="#f0eff2" stroke-width="1"/>
          </g>
          <g transform="translate(-1375.082 -353.225)">
            <line id="直线_64257-71" data-name="直线 64257" x2="23" y2="35" transform="translate(1655.5 353.5)" fill="none" stroke="#f0eff2" stroke-width="1"/>
          </g>
          <g transform="translate(-1371.082 -353.225)">
            <line id="直线_64257-72" data-name="直线 64257" x2="23" y2="35" transform="translate(1655.5 353.5)" fill="none" stroke="#f0eff2" stroke-width="1"/>
          </g>
        </g>
      </g>
    </g>
    <g id="Frame_6" transform="translate(43.573)">
      <path id="路径_1081" data-name="路径 1081" d="M6867.81,1387.352l-11.9,12.954v18.135H6888.3v-13.605h139.56v-17.484Z" transform="translate(-6855.914 -1387.352)" fill="#f0eff2"/>
    </g>
    <g id="Frame_6-2" data-name="Frame_6" transform="translate(0 217.516) rotate(-90)">
      <path id="路径_1081-2" data-name="路径 1081" d="M7015.96,1387.352l11.9,12.954v18.135h-32.383v-13.605h-139.56v-17.484Z" transform="translate(-6855.914 -1387.352)" fill="#f0eff2"/>
    </g>
    <g id="Frame_3" transform="translate(36.213 40.094)">
      <path id="路径_1079" data-name="路径 1079" d="M187.6,0H102.1L85.816,18.5H0" transform="translate(0 187.604) rotate(-90)" fill="none" stroke="#fff" stroke-width="1"/>
    </g>
    <g id="Reg_3" transform="translate(36.66 41.648)">
      <rect id="矩形_1094" data-name="矩形 1094" width="4" height="7" fill="#fff"/>
    </g>
    <g id="Circle_1" transform="translate(47.66 220.648)">
      <circle id="椭圆_260" data-name="椭圆 260" cx="3" cy="3" r="3" transform="translate(4 4)" fill="#fff"/>
      <g id="椭圆_259" data-name="椭圆 259" fill="none" stroke="#fff" stroke-width="1">
        <circle cx="7" cy="7" r="7" stroke="none"/>
        <circle cx="7" cy="7" r="6.5" fill="none"/>
      </g>
    </g>
    <g id="Circle_1-2" data-name="Circle_1" transform="translate(392.66 14.648)">
      <circle id="椭圆_260-2" data-name="椭圆 260" cx="3" cy="3" r="3" transform="translate(4 4)" fill="#fff"/>
      <g id="椭圆_259-2" data-name="椭圆 259" fill="none" stroke="#fff" stroke-width="1">
        <circle cx="7" cy="7" r="7" stroke="none"/>
        <circle cx="7" cy="7" r="6.5" fill="none"/>
      </g>
    </g>
    <g id="Frame_3-2" data-name="Frame_3" transform="translate(202.66 21.648)">
      <path id="路径_1079-2" data-name="路径 1079" d="M6918,1790.86h85.5l16.289-18.5H7105.6" transform="translate(-6918 -1772.362)" fill="none" stroke="#f0eff2" stroke-width="1"/>
    </g>
    <g id="Frame_2" transform="translate(43.66 30.648)">
      <line id="直线_64256" data-name="直线 64256" x2="261" transform="translate(0)" fill="none" stroke="#f0eff2" stroke-linecap="round" stroke-width="1"/>
    </g>
    <g id="Reg_3-2" data-name="Reg_3" transform="translate(202.66 35.648)">
      <rect id="矩形_1094-2" data-name="矩形 1094" width="6" height="5" transform="translate(0)" fill="#f0eff2"/>
    </g>
    <g id="Reg_3-3" data-name="Reg_3" transform="translate(302.66 27.648)">
      <rect id="矩形_1094-3" data-name="矩形 1094" width="5" height="7" transform="translate(0)" fill="#f0eff2"/>
    </g>
  </g>
</svg>
