<svg xmlns="http://www.w3.org/2000/svg" viewBox="0 0 201.43 193.9"><defs><style>.cls-1{fill:#a37676;}.cls-2,.cls-7,.cls-8{fill:#684242;}.cls-2,.cls-7{stroke:#684242;stroke-miterlimit:10;}.cls-2{stroke-width:0.36px;}.cls-3{fill:#e29a9a;}.cls-4{fill:#efdbc0;}.cls-5{fill:#ffdedc;}.cls-6{fill:#ffcbc7;}.cls-7{stroke-width:0.55px;}</style></defs><g id="图层_2" data-name="图层 2"><g id="图层_2-2" data-name="图层 2"><path class="cls-1" d="M201,70.87a41.57,41.57,0,0,1-3.45-12.38,3.81,3.81,0,0,0-.73-1.45,14.92,14.92,0,0,1-3.64-10.19c0-.91-.91-2.19-2-1.64-2.55,1.09-5.1,1.27-7.83,1.82-1.09.18-1.45,1.27-2.18,2a5.62,5.62,0,0,1-.91,1.28A41.32,41.32,0,0,1,177.56,55c-.37.18-.55.54-.91.91A30.78,30.78,0,0,1,171,59.59a17.83,17.83,0,0,0-3.64,2.91,21,21,0,0,0-3.28,7.1,1.83,1.83,0,0,1-.73.91,15,15,0,0,0-4.55,2.18,26.21,26.21,0,0,0-4.55,5.46c-1.09,2-1.45,4-2.91,5.82-.36.18-.54.55-.91.91a15.36,15.36,0,0,1-2.18,1.46A31.75,31.75,0,0,0,141.89,90c-2.37,2-3.28,4.91-4.55,7.82l-.55.55a19.34,19.34,0,0,1-4.91,6c-6.91,6.37-15.65,10.92-19.65,19.48-.91,2-1.64,4.36-3.46,5.82-1.64.91-3.64.36-4.91,1.64-1.28,1.45-1.28,3.46-2.37,5.09s-2.37,4.37-4.73,3.46c-2.37-2.36-2.37-6.19-2.37-9.28,0-2.18-2-2.91-3.46-4.19a5.18,5.18,0,0,1-1.09-2.91c-.18-2.55,0-5.27-1.27-7.64A20.75,20.75,0,0,1,86.2,108c0-2.18.55-4.36.37-6.55a4.94,4.94,0,0,0-1.46-3.09c-2.36-1.64-4.18-4-4.18-6.73.18-4.19-.37-8.74-3.64-12-.37-.36-.55-.9-.91-1.27-1.46-2.55-1.64-5.28-1.64-8a4,4,0,0,0-.37-2.54,4.88,4.88,0,0,0-2.18-1.64c-1.46-.18-2.91-.18-4.37-.37a9.59,9.59,0,0,1-3.82-2,6.55,6.55,0,0,0-4.18-2.36c-2.19,0-4.92,1.09-6.74-.73-2.12-2.48-4.93-4.26-8-3.53a2,2,0,0,0-1.24.86,7.23,7.23,0,0,0-1.65,2.69v.13c-.37,3.31,1.27,6.22,2.91,9,.18.18,0,.54.18.73a11.52,11.52,0,0,1,1.82,4.91c.36,3.82-.18,7.64,1.27,11.1,1.09,2,2.18,4,3.46,6a13.16,13.16,0,0,1,2,6.73c.55,5.82,1.64,11.28,4.37,16.56A11.53,11.53,0,0,1,60,121.64c.18,4.19-.37,8.19,1.09,12.2a36.61,36.61,0,0,0,5.1,8c3.09,3.64,6.18,7.28,6.73,12a35.56,35.56,0,0,0,1.64,7.65A13.89,13.89,0,0,0,78,166.77a4.41,4.41,0,0,1,.73,1.28l.55.54c2.73,4,.73,8.38.36,12.56a6,6,0,0,0,2,4.91,17.67,17.67,0,0,1,3.1,3.28c.54,1.09.54,2.91,2,2.73,3.46-.18,5.28-4,5.4-7.12l-.22.1c.28-1.72,1.73-2.81,3.19-3.54,1.64-.54,3.28-.91,4.37-2.36,1.45-2,1.82-4.19,2.36-6.37a6.13,6.13,0,0,1,3.28-3.46c2.91-1.45,5.82-2.55,8.73-4.18,6.56-3.83,10.38-10,12.38-17.11.18-.36.55-.73.73-1.09.18-.18,0-.55.18-.73a12.31,12.31,0,0,1,3.82-3.09c2.73-1.28,5.46-2.19,8-4,2.91-2.36,4.37-5.82,6-9.1a9.31,9.31,0,0,1,3.82-3.64c2.37-1.09,5.1-1.82,6-4.18a61.85,61.85,0,0,1,2.91-6c.55-.91,1.46-1.27,2.19-2,5.09-3.46,9.09-7.28,11.46-12.74a5.87,5.87,0,0,1,1.27-1.64,28.41,28.41,0,0,0,4.19-2l.55-.54a4.6,4.6,0,0,0,1.27-.73c3.64-3.46,7.1-6.55,10.19-10.56a6.21,6.21,0,0,0,1.09-2.54,3.8,3.8,0,0,1,.55-.91c2.91-2.37,6-3.82,8.37-7.1C199.76,74,201.94,72.69,201,70.87Z"/><path class="cls-2" d="M200.45,69.49c-.41-1-.78-2-1.12-3a42.91,42.91,0,0,1-1.46-5.94,12.55,12.55,0,0,0-.56-2.79,11.3,11.3,0,0,0-1.54-2.13,14,14,0,0,1-2.2-5.18,15.73,15.73,0,0,1-.33-2.56,4.46,4.46,0,0,0-.4-2.2,2,2,0,0,0-1.24-1c-.83-.18-1.78.45-2.55.68-2,.59-4,.8-6,1.2-1.51.29-2.25,1.61-3.06,2.8-.24.35-.52.63-.73,1s-.46.86-.68,1.29a15.13,15.13,0,0,1-1.74,3,18.87,18.87,0,0,1-4.81,3.65,25.55,25.55,0,0,0-4.73,3.17,13.32,13.32,0,0,0-3,4.63,25.32,25.32,0,0,0-.89,2.44c-.21.65-.28,1.34-1,1.68-.46.23-1,.35-1.49.55A12.33,12.33,0,0,0,156.46,74,19.66,19.66,0,0,0,153,78.72c-.37.79-.68,1.66-1,2.5l0,0v0a.19.19,0,0,1,0,.08.3.3,0,0,1,0,.1l-.36.83,0-.08s0,.08-.07.13h0a.9.9,0,0,1-.21.27,5.48,5.48,0,0,1-1,1.27,12.62,12.62,0,0,1-2.56,2c-.87.48-1.78.87-2.66,1.31a16.43,16.43,0,0,0-4.76,3.21,15.07,15.07,0,0,0-2.72,4.43c-.37.84-.64,1.77-1.08,2.57-.22.38-.56.63-.76,1s-.49.91-.77,1.34c-2,3.07-5.15,5.48-8,7.75-5.32,4.26-11.19,8.27-14.71,14.27-.89,1.5-1.47,3.12-2.23,4.68a9.29,9.29,0,0,1-1.46,2.29,3.94,3.94,0,0,1-2.52,1.13c-1.75.28-3.07.67-3.89,2.37a24,24,0,0,0-.84,2.28,11.11,11.11,0,0,1-1.23,2.37c-.67,1.06-1.58,2.78-3,2.73-.85,0-1.28-.88-1.64-1.56a9.54,9.54,0,0,1-.85-2.65,44.15,44.15,0,0,1-.28-5,4.36,4.36,0,0,0-2.08-3.15,7.42,7.42,0,0,1-1.74-1.41,6,6,0,0,1-.77-3.11,21.21,21.21,0,0,0-.71-5.72A23.7,23.7,0,0,0,88,114.59a23.75,23.75,0,0,1-1.24-3.36,15.1,15.1,0,0,1-.53-2.9,1.09,1.09,0,0,1,0-.18l0-.13a.41.41,0,0,0-.06-.37c0-1,.15-1.93.24-2.88A9.88,9.88,0,0,0,86,99.38a4,4,0,0,0-1.27-1.52,11.43,11.43,0,0,1-2.21-2.07,7.68,7.68,0,0,1-1.23-2.22,8.24,8.24,0,0,1-.3-2.84,22.1,22.1,0,0,0-.45-5.07,13.4,13.4,0,0,0-2-4.7c-.49-.7-1.15-1.28-1.62-2a11,11,0,0,1-1.44-2.79,18.52,18.52,0,0,1-.71-6.06,4.29,4.29,0,0,0-.3-2.33,4.63,4.63,0,0,0-1.62-1.58c-1.74-1.07-3.95-.41-5.84-1a6,6,0,0,1-.8-.3.42.42,0,0,0-.3-.13,9.66,9.66,0,0,1-1.51-.92c-.74-.54-1.3-1.27-2.07-1.79a6.46,6.46,0,0,0-2.33-1,7.59,7.59,0,0,0-2.33,0c-1.73.22-3.54.48-4.86-.92-2.17-2.32-5-4.16-8.21-3.47-.85.08-1.42.86-1.92,1.47a6.71,6.71,0,0,0-1.36,2.41.37.37,0,0,0,0,.18.64.64,0,0,0,0,.07,12.68,12.68,0,0,0,1.85,7.24c.3.56.62,1.11,1,1.65a1.61,1.61,0,0,1,.22.66,1.89,1.89,0,0,0,.38.71A10.15,10.15,0,0,1,46,74.52c.62,2.74.25,5.62.58,8.41a12.59,12.59,0,0,0,.94,3.82c.59,1.26,1.35,2.49,2.05,3.7,1.44,2.47,3,4.8,3.31,7.73a78.75,78.75,0,0,0,1,7.94,38.94,38.94,0,0,0,2.34,7.61c1.09,2.57,2.76,4.86,2.87,7.74s-.09,5.62.2,8.41a16.68,16.68,0,0,0,.86,4A21,21,0,0,0,62,137.38a55.36,55.36,0,0,0,4.73,6.35A28.44,28.44,0,0,1,70.92,150c1.1,2.46,1.2,5.14,1.7,7.76a18,18,0,0,0,2.71,7.1c.31.43.64.86,1,1.26a8.88,8.88,0,0,1,1.28,1.53,5.34,5.34,0,0,0,.33.68c.23.33.55.57.77.91a7,7,0,0,1,.83,2,9.45,9.45,0,0,1,.27,2.3l-.22,1.34a.56.56,0,0,0,.1.42c-.16,1.22-.42,2.44-.63,3.63a12.53,12.53,0,0,0-.3,3.45,6.47,6.47,0,0,0,1.32,3.13,23.89,23.89,0,0,0,2.57,2.56,6.25,6.25,0,0,1,1.26,1.54,9.53,9.53,0,0,1,.44,1.27,2.27,2.27,0,0,0,1.28,1.63,4,4,0,0,0,2.67-.46,7.16,7.16,0,0,0,3.37-4.33,10.11,10.11,0,0,0,.49-2.73.39.39,0,0,0-.09-.29,5.35,5.35,0,0,1,3.62-3,6.94,6.94,0,0,0,4-2.64,16.08,16.08,0,0,0,2-5.25,5.74,5.74,0,0,1,3.19-4c3.68-1.92,7.67-3.21,11-5.69a26,26,0,0,0,6.66-7.28,31.77,31.77,0,0,0,2.25-4.43c.3-.72.58-1.45.83-2.19.15-.44.3-.89.43-1.34a5.89,5.89,0,0,1,.76-1.45,2.85,2.85,0,0,0,.28-.82c.11-.38.58-.73.86-1a11,11,0,0,1,2.6-1.94c1.79-1,3.74-1.6,5.55-2.52a13.88,13.88,0,0,0,4.55-3.44,24.05,24.05,0,0,0,2.86-4.51,17.5,17.5,0,0,1,2.76-4.68,13.48,13.48,0,0,1,4.41-2.61,8.22,8.22,0,0,0,3.6-2.53,13.56,13.56,0,0,0,1.13-2.37c.43-1,.89-1.9,1.37-2.84a7.61,7.61,0,0,1,1.6-2.48c.69-.59,1.43-1.14,2.17-1.66a42.18,42.18,0,0,0,4.14-3.27,26.7,26.7,0,0,0,6.24-8.15,5.86,5.86,0,0,1,1.52-2.37,18.07,18.07,0,0,1,2.78-1.2,8.22,8.22,0,0,0,1.29-.73,8.49,8.49,0,0,1,1-.78,9,9,0,0,0,2.06-1.63A90.23,90.23,0,0,0,188.17,87a8.49,8.49,0,0,0,1.39-2.21c.17-.45.25-.95.45-1.38a3.41,3.41,0,0,1,1.24-1.26c1.41-1.05,2.89-2,4.26-3.1a25,25,0,0,0,3.66-3.9c.8-1,2.05-2,2.08-3.33A6.13,6.13,0,0,0,200.45,69.49Zm-64.74,30.93a12.42,12.42,0,0,0,.67-1.1c.26-.47.61-.81.9-1.24a16.25,16.25,0,0,0,1.09-2.57,21.78,21.78,0,0,1,1.18-2.43A11.29,11.29,0,0,1,143.72,89c1.71-1,3.63-1.68,5.28-2.79a9.78,9.78,0,0,0,3-3.08,6.85,6.85,0,0,0,.91,1.16,3.55,3.55,0,0,0,2.83,1.09c2.5-.25,3.93-2.49,5.27-4.34l2.66-3.67a.43.43,0,0,1,0-.07,16.59,16.59,0,0,1,1.95,1c.5.31,1-.48.46-.79a18.69,18.69,0,0,0-4.22-1.92c-.56-.18-.8.7-.24.87.4.13.8.28,1.2.44l-2.16,3c-.66.92-1.3,1.87-2,2.73a5,5,0,0,1-2.45,1.72,2.63,2.63,0,0,1-2.47-.54,5.93,5.93,0,0,1-1.23-1.63c0-.06.05-.12.08-.17.39-.86.7-1.74,1.09-2.59a15,15,0,0,1,1.56-2.58,15.64,15.64,0,0,1,4.47-4.48,16.31,16.31,0,0,1,2.78-1.2,2.4,2.4,0,0,0,1.15-.72,4.78,4.78,0,0,0,1.72,2.11,7.38,7.38,0,0,0,4.33,1.06,4.15,4.15,0,0,0,2.17-.46A2.9,2.9,0,0,0,173,71.7a7,7,0,0,0,.31-1.82,7.38,7.38,0,0,0-.08-2.15A3.8,3.8,0,0,0,172,65.89c-.38-.39-.91-.85-1-1.41a.47.47,0,0,0-.46-.45.45.45,0,0,0-.45.45,2.74,2.74,0,0,0,.72,1.5,14.44,14.44,0,0,1,1.06,1.15,2.86,2.86,0,0,1,.47,1.71,11.22,11.22,0,0,1-.11,1.74,3.31,3.31,0,0,1-.5,1.43,1.74,1.74,0,0,1-1.35.66,7.66,7.66,0,0,1-4-.55,3.61,3.61,0,0,1-2.14-2.92.15.15,0,0,0,0-.07c.22-.66.39-1.33.63-2a18.2,18.2,0,0,1,1.34-2.82,12.59,12.59,0,0,1,4.3-4.16c1.66-1.09,3.47-1.9,5.05-3.13q.31-.24.63-.51a6.9,6.9,0,0,0-.74,5.16A5.25,5.25,0,0,0,179.16,65a5.51,5.51,0,0,0,5-1.55,13.09,13.09,0,0,0,3-5.26l1.28-3.59a2,2,0,0,0,0-1.75,1.06,1.06,0,0,0-1.39-.41c-.52.28-.06,1.07.46.79-.05,0,0,0,0,0a.21.21,0,0,1,.11.07.42.42,0,0,1,.1.39,7,7,0,0,1-.46,1.4c-.33.94-.67,1.88-1,2.82a12.68,12.68,0,0,1-2.52,4.65,4.79,4.79,0,0,1-4,1.64,4.36,4.36,0,0,1-3.23-2.44,5.33,5.33,0,0,1,.34-4.37,1,1,0,0,0,.11-.17c0-.12.09-.23.13-.35l0-.09.3-.59a.41.41,0,0,0,.06-.2h0q.3-.65.66-1.26a.52.52,0,0,0,0-.37c.34-.56.64-1.16.93-1.72a23.74,23.74,0,0,1,3-4.52,3.89,3.89,0,0,1,2.5-.88c1-.18,2.09-.34,3.12-.56a18.69,18.69,0,0,0,2.65-.77c.49-.19.94-.5,1.43-.12a1.6,1.6,0,0,1,.52,1.11A24.41,24.41,0,0,0,193,52a14.18,14.18,0,0,0,2.33,4.58,5.08,5.08,0,0,1,1.38,2.54c.06.35.11.7.16,1a6.32,6.32,0,0,0-3.83.71,9.57,9.57,0,0,0-3.33,3.06,26.1,26.1,0,0,0-2.26,4.12c-.7,1.52-1.33,3.08-1.94,4.64a61.69,61.69,0,0,1-4,8.8,21.05,21.05,0,0,1-5.33,6.21A12.11,12.11,0,0,1,168,90.28c-.25,0-.49-.06-.73-.11a9.62,9.62,0,0,0,0-1.78c-.08-.88-.24-1.75-.4-2.62a5.26,5.26,0,0,1-.13-2.58,4.05,4.05,0,0,1,3-2.36c2.82-.74,6.29,0,8.19-2.73a3.24,3.24,0,0,0,.4-3.14l.64-.13a.45.45,0,1,0-.24-.87l-3.08.58a.45.45,0,0,0-.32.56.47.47,0,0,0,.56.32l1.51-.29s0,0,0,0c.67,1.18-.11,2.56-1.08,3.31-1.26,1-3,1-4.54,1.14-2.5.21-5.86,1-6.11,4.09a9.23,9.23,0,0,0,.29,2.4,19.7,19.7,0,0,1,.38,2.76,8.54,8.54,0,0,1,0,1.34.49.49,0,0,0-.09.53,4.66,4.66,0,0,1-1.23,2.4,3.31,3.31,0,0,1-1.74,1,5.2,5.2,0,0,1-2.26-.37,6.25,6.25,0,0,0-4.22.21,11.22,11.22,0,0,0-5.45,5.6.48.48,0,0,0-.22-.05.42.42,0,0,0-.42.31l-.07.06a53.25,53.25,0,0,1-4.86,4.13,29,29,0,0,1-2.58,1.8,2.91,2.91,0,0,1-2.58.52,2.55,2.55,0,0,1-1.3-1.47,3.73,3.73,0,0,1,0-2.38,9.78,9.78,0,0,1,1.34-2.61c.61-.93,1.25-1.85,1.88-2.78l4.08-6A9,9,0,0,1,149.28,93c.41.42,1.05-.23.64-.65a9.89,9.89,0,0,0-3-2.09.49.49,0,0,0-.63-.26,8.88,8.88,0,0,0-1.24-.38c-.57-.13-.82.75-.25.88a8.31,8.31,0,0,1,.89.25c-1.25,1.84-2.49,3.68-3.74,5.51l-2,3a12,12,0,0,0-1.49,2.8,4.76,4.76,0,0,0-.12,2.82,3.75,3.75,0,0,0,1.45,2.08c1.91,1.29,4.06-.41,5.59-1.51a54.43,54.43,0,0,0,5.15-4.19c-.57,1.24-1.1,2.5-1.75,3.71a20.43,20.43,0,0,1-2.33,3.42c-.38.46-.79.9-1.2,1.33a10.54,10.54,0,0,1-5.17,2.23,7,7,0,0,1-4.53-.66,5.47,5.47,0,0,1-2.41-3.2,6.9,6.9,0,0,1,.73-5.21.42.42,0,0,0,.06-.21l.19-.2A19,19,0,0,0,135.71,100.42Zm-43.35,28a2.93,2.93,0,0,1,1.1,1.81c.11.84,0,1.72.05,2.57a14.68,14.68,0,0,0,.82,4.78,4.84,4.84,0,0,0,1.94,2.72,6,6,0,0,1,.08,5.35,8.29,8.29,0,0,1-1.6,2.29,7,7,0,0,1-2.35,1.64,4.72,4.72,0,0,1-4.76-1,6.24,6.24,0,0,1-1.92-4.87A9.71,9.71,0,0,1,88.14,138l0,0,1.36,1.14a.44.44,0,0,0,.21.28l.54.34c.43.27,1-.37.55-.71L88,136.65l-.71-.59a1.82,1.82,0,0,0-.77-.52.59.59,0,0,0-.7.45.55.55,0,0,0,.53.68.48.48,0,0,0,.22,0l.14.13.51.43.27.23a11,11,0,0,0-2.59,5.67,7.38,7.38,0,0,0,1.74,5.79,5.8,5.8,0,0,0,5.4,1.79,6.82,6.82,0,0,0,2.85-1.56,9.5,9.5,0,0,0,2-2.42,7.21,7.21,0,0,0,.52-6.17,3.73,3.73,0,0,0,2.6-1.66,14.76,14.76,0,0,0,2.26-3.87,18.72,18.72,0,0,1,1-2.61,3,3,0,0,1,2.28-1.49,16,16,0,0,0,2.27-.45,3.32,3.32,0,0,0,.54-.25.41.41,0,0,0,.22.4,3.18,3.18,0,0,1,1.2,1.48,5.3,5.3,0,0,1,.45,1.8,10,10,0,0,1-.88,4.38,11.39,11.39,0,0,1-2,3.55,4,4,0,0,1-1.56,1.13,1.37,1.37,0,0,1-1.55-.31,1.94,1.94,0,0,1-.23-1l-.11-1.39c-.07-.94-.14-1.89-.22-2.83a.46.46,0,1,0-.91,0l.22,2.78.11,1.4a4.15,4.15,0,0,0,.23,1.31,2,2,0,0,0,1.8,1.1,3.6,3.6,0,0,0,2.24-.91,9.35,9.35,0,0,0,2.5-3.71,12.63,12.63,0,0,0,1.28-5,6.26,6.26,0,0,0-.22-1.66c.17.12.33.24.5.34a10.49,10.49,0,0,0,2.29,1.22,2.61,2.61,0,0,0,2.44-.52,16.08,16.08,0,0,0,3.25-3.49,18.06,18.06,0,0,0,2.21-4.22,15.84,15.84,0,0,0,.71-2.53,3.42,3.42,0,0,0-.29-2.66.47.47,0,0,0-.62-.16.46.46,0,0,0-.17.62,2.44,2.44,0,0,1,.22,1.89,15.18,15.18,0,0,1-.55,2.08,17,17,0,0,1-1.84,3.85,17.26,17.26,0,0,1-2.72,3.25,3.39,3.39,0,0,1-1.71,1.1,3.78,3.78,0,0,1-2.08-.8c-1.34-.77-2.91-1.87-2.91-3.59v0l.15-.19a21.57,21.57,0,0,0,2.29-4.52,26.9,26.9,0,0,1,6-8.15c4.43-4.32,9.79-7.63,14.26-11.9a7.64,7.64,0,0,0-.19,3.33,6.45,6.45,0,0,0,2.36,4,7.17,7.17,0,0,0,4.95,1.28,11.62,11.62,0,0,0,3-.61c-1.08.89-2.2,1.72-3.34,2.54a.41.41,0,0,0-.28.2c-1.66,1.18-3.34,2.33-5,3.53-.6.45-1.2.91-1.79,1.39a6.87,6.87,0,0,0-.05-4.67,6,6,0,0,0-2-2.67,3.34,3.34,0,0,0-3.47-.26,5.52,5.52,0,0,0-2.27,2.17.48.48,0,0,0-.65.54l.14.63a.46.46,0,0,0,.83.11,6,6,0,0,1,2-2.46,2.52,2.52,0,0,1,2.75-.07,5.43,5.43,0,0,1,2.11,4.85,5.53,5.53,0,0,1-1,2.83.38.38,0,0,0,0,.33,31,31,0,0,0-2.7,2.68,46,46,0,0,0-5,7.6,37.7,37.7,0,0,1-5.27,7.65,78.55,78.55,0,0,1-6.8,5.67,23.83,23.83,0,0,0-3.11,3,21.25,21.25,0,0,0-2.4,3.74,15.44,15.44,0,0,1-2.51,3.86,8.06,8.06,0,0,1-3.82,2.13,9.66,9.66,0,0,1-2,.29.56.56,0,0,0-.31-.31c-.83-.33-1-1.44-.87-2.2a10.35,10.35,0,0,1,.41-1.64c.15-.53.32-1.05.52-1.56a6.15,6.15,0,0,1,1.57-2.48,1.7,1.7,0,0,1,2.26-.09,2.43,2.43,0,0,1,.79,2.17.45.45,0,0,0-.39.77l.36.44a.46.46,0,0,0,.76-.2,3.72,3.72,0,0,0-.59-3.54,2.61,2.61,0,0,0-3.16-.66,5.42,5.42,0,0,0-2.23,2.73,16.89,16.89,0,0,0-.66,1.8,16.13,16.13,0,0,0-.51,1.93,3.69,3.69,0,0,0,.19,2.13,2.74,2.74,0,0,0,.43.67A12.81,12.81,0,0,1,90.08,156c-2.67-1.59-5.22-3.93-6.07-7a13.76,13.76,0,0,0-1.61-4.47,39.47,39.47,0,0,0-2.9-3.31,13.79,13.79,0,0,1-3-8.14,4.64,4.64,0,0,0,.85,1.19,4.94,4.94,0,0,0,4.42,1.17,8.54,8.54,0,0,0,4.28-2.57A13.78,13.78,0,0,0,89,128.74a10.78,10.78,0,0,0,.77-2.58A14.5,14.5,0,0,0,92.36,128.43Zm-37-20a50.73,50.73,0,0,1-1.4-7.73c-.14-1.26-.14-2.53-.39-3.77a14.16,14.16,0,0,0-1.25-3.55c-.63-1.25-1.43-2.41-2.12-3.63a29.1,29.1,0,0,1-2-3.76c-1-2.56-.87-5.41-.95-8.1a16.17,16.17,0,0,0-1-5.81,9.71,9.71,0,0,0,10.18,1.45,5.46,5.46,0,0,0,2.05-1.31,2,2,0,0,0,.17-2.39,4.32,4.32,0,0,0-2.38-1.65,10.42,10.42,0,0,0-3.12-.62c-.58,0-.58.89,0,.91a9.63,9.63,0,0,1,2.44.44,4.84,4.84,0,0,1,2,1,1.25,1.25,0,0,1,.26,1.64,2.74,2.74,0,0,1-.78.62,9.86,9.86,0,0,1-1,.53,8.91,8.91,0,0,1-8.32-.67,9,9,0,0,1-3.08-3.38.37.37,0,0,0-.2-.19,3.24,3.24,0,0,1-.21-.35,18,18,0,0,1-1.57-3.43,9.43,9.43,0,0,1-.43-3.84v0a5.4,5.4,0,0,1,1.09-1.94,8.71,8.71,0,0,1,.73-.86,2,2,0,0,1,.36-.31l.08,0h0l.24-.06h0a.38.38,0,0,0,.19,0,6.48,6.48,0,0,1,4.76,1.06,11.65,11.65,0,0,1,2.14,1.82,5,5,0,0,0,1.82,1.42c1.5.6,3.14.23,4.68.07a4.74,4.74,0,0,1,2.36.27,8.23,8.23,0,0,1,2.57,1.89,8.21,8.21,0,0,0,1.38,1,6.44,6.44,0,0,0-2.46,3.33c-.47,1.14-.91,2.29-1.33,3.45a14.83,14.83,0,0,0-1,3.47,3.4,3.4,0,0,0,1.14,3,7.87,7.87,0,0,0,2.86,1.67,3.91,3.91,0,0,0,3.09-.23,4.51,4.51,0,0,0,1.83-2.19,8.61,8.61,0,0,0-.4-7.25c-.28-.52-1.06-.06-.79.46a7.86,7.86,0,0,1,.62,5.71,4.51,4.51,0,0,1-1.24,2.13,2.64,2.64,0,0,1-2.28.63A6.18,6.18,0,0,1,62,78.1a2.78,2.78,0,0,1-1.32-2.18,9.46,9.46,0,0,1,.79-3.08c.38-1,.77-2.1,1.18-3.14A13,13,0,0,1,63.93,67a2.89,2.89,0,0,1,1.75-1.3,6.92,6.92,0,0,0,2.13.59c1,.1,2,.14,3,.22a3.58,3.58,0,0,1,2.45,1.25c.74.82.52,1.83.52,2.85a24.85,24.85,0,0,0,.16,3A11.42,11.42,0,0,0,75.8,79a25.38,25.38,0,0,1,3,4.35A15.12,15.12,0,0,1,80,88.48c.07.9,0,1.83,0,2.74l-.1.07a13.69,13.69,0,0,1-6,2.78c-2.3.6-4.81,1.32-7.19.76A5.3,5.3,0,0,1,64,93.33a6.65,6.65,0,0,1-1.45-2.86,4.94,4.94,0,0,1-.1-3.11,2.45,2.45,0,0,1,1-1.07,14.68,14.68,0,0,1,1.6-.88,31.82,31.82,0,0,1,7.64-2.68c.17.35.32.7.47,1a.46.46,0,0,0,.63.16.47.47,0,0,0,.16-.62,25.27,25.27,0,0,0-2.18-4.07c-.33-.49-1.11,0-.79.46a22.85,22.85,0,0,1,1.29,2.19,32.45,32.45,0,0,0-7.16,2.47c-.59.28-1.17.57-1.74.9A4.15,4.15,0,0,0,62,86.4a2.55,2.55,0,0,0-.41.76,9.15,9.15,0,0,0-3.34-3.48,4.65,4.65,0,0,0-3-.77,4,4,0,0,0-2.31,1.35,8.37,8.37,0,0,0-1.33,2.32c-.43-.49-.87-1-1.34-1.43a.46.46,0,0,0-.64.65,21.9,21.9,0,0,1,1.72,1.88q.39.46.75,1c.12.17.24.33.35.5l.18.25a.54.54,0,0,0-.09.25.56.56,0,0,0,.6.56.61.61,0,0,0,.54-.78,2.63,2.63,0,0,0-.46-.77l-.54-.74-.42-.54c.57-1.42,1.32-3.14,3-3.53a3.42,3.42,0,0,1,2.42.55A8.18,8.18,0,0,1,61,88.14a.41.41,0,0,0,.31.21,7.41,7.41,0,0,0,.14,1.5,9,9,0,0,0,1.26,3.34,5.84,5.84,0,0,0,2.72,2.19c2.51,1,5.26.42,7.78-.2a17.29,17.29,0,0,0,6.82-2.84,6.12,6.12,0,0,0,.18,1,8.06,8.06,0,0,0,1.1,2.38.51.51,0,0,0-.17.16,22.21,22.21,0,0,0-2.32,5.14,16,16,0,0,0-.62,2.74,2.11,2.11,0,0,0,.22,1.35,2.81,2.81,0,0,0,.91.87,5.69,5.69,0,0,0,3,.89.46.46,0,0,0,0-.91,4.79,4.79,0,0,1-2.28-.6,2.36,2.36,0,0,1-.81-.66,1.38,1.38,0,0,1-.12-1,20,20,0,0,1,1.46-4.78,20.35,20.35,0,0,1,1.28-2.45,12.53,12.53,0,0,0,.92,1,14,14,0,0,1,2,1.78,5.1,5.1,0,0,1,.83,2.52c.15,2.08-.46,4.15-.38,6.22l-4.11,10.36a15.9,15.9,0,0,0-1.39,4.95,4.09,4.09,0,0,0,1.6,3.8,2.68,2.68,0,0,0,3.68-.66l0-.06a14.87,14.87,0,0,1,.63,1.73.46.46,0,0,0,.88-.25,15.87,15.87,0,0,0-2.89-5.48.47.47,0,0,0-.65,0,.48.48,0,0,0,0,.64,14.48,14.48,0,0,1,1.76,2.78.44.44,0,0,0-.55.18,1.3,1.3,0,0,1-1,.64,2.21,2.21,0,0,1-1.38-.29c-1.08-.64-1.26-2.12-1.16-3.28a16.72,16.72,0,0,1,1.38-4.55l2-4.93c.49-1.23,1-2.46,1.46-3.68a20.9,20.9,0,0,0,1.3,4.23c.35.84.78,1.63,1.15,2.45a10.48,10.48,0,0,1,.75,3.17c.11,1.08.09,2.2.17,3.29a.62.62,0,0,0,0,.36c.57,3-.9,6.07-2.88,8.27a9,9,0,0,1-3.71,2.7,4.31,4.31,0,0,1-3.91-.48c-1.27-1-1.54-2.72-1.76-4.21a71.9,71.9,0,0,1,1.07-7.14c.31-1.74.6-3.48.75-5.25a8.14,8.14,0,0,0-.37-3.6,3.46,3.46,0,0,0-2.18-2.23h0a13.49,13.49,0,0,0,.52-2.89,13.05,13.05,0,0,0-.06-2.34,6,6,0,0,0-.58-2.24c-.82-1.47-2.73-1.42-4.19-1.46a36.27,36.27,0,0,0-5.31.27c-.89.11-1.78.24-2.66.42-.43.08-.85.17-1.28.27s-.85.26-1.27.32l-.19,0a.49.49,0,0,0-.23-.41h0a32.37,32.37,0,0,0,1.33-4.51c.12-.58-.75-.82-.88-.25a30.93,30.93,0,0,1-2.94,8.06c-.27.51.51,1,.79.46.46-.88.89-1.78,1.27-2.7a1.44,1.44,0,0,0,.89.29,8.48,8.48,0,0,0,1.21-.28l1.23-.28a36.51,36.51,0,0,1,5.1-.67c.87,0,1.75-.07,2.62,0a13.42,13.42,0,0,1,2.29.13,1.9,1.9,0,0,1,1.53,1,5.91,5.91,0,0,1,.43,2,12.46,12.46,0,0,1-2.37,8.46,12.31,12.31,0,0,1-6.73,4.52c-2.2.58-5,.46-6.67-1.32a3.31,3.31,0,0,1-.5-.68l-.09-.11a13.89,13.89,0,0,0-.78-1.54A32,32,0,0,1,55.36,108.45Zm5.35-4.68s0,0,0,0ZM199.89,72.94c-.4.58-.92,1.06-1.36,1.59-.62.75-1.14,1.54-1.81,2.24a26.92,26.92,0,0,1-4.12,3.33c-1.12.79-2.63,1.58-3.33,2.81a.39.39,0,0,0-.15,0,5,5,0,0,0-1.38.73c-.32.19-.7.43-1,.2a2.26,2.26,0,0,1-.59-1.35,6.54,6.54,0,0,1-.11-1.77,11.2,11.2,0,0,1,3-6.51c.75-.87,1.58-1.69,2.41-2.49.13.77.25,1.53.38,2.3a.46.46,0,0,0,.56.32.47.47,0,0,0,.32-.56l-.92-5.52a.46.46,0,0,0-.56-.32.47.47,0,0,0-.32.56l.36,2.14a22.69,22.69,0,0,0-5.11,6.19,10.21,10.21,0,0,0-1.06,3.89,7.74,7.74,0,0,0,.14,2,3.28,3.28,0,0,0,.74,1.69,1.54,1.54,0,0,0,1.84.24c.36-.17.68-.43,1-.63a14.33,14.33,0,0,1-3.37,4.74c-1.38,1.52-2.83,3-4.31,4.37l-2.05,1.94c-.42.4-.82.82-1.26,1.19a11.33,11.33,0,0,1-1.18.65c-.36.25-.62.61-1,.85a9,9,0,0,1-1.2.61,13,13,0,0,0-2.71,1.23,21.18,21.18,0,0,1,1.68-4.92,9.32,9.32,0,0,1,1.74-2.4c.44-.43,1.59-1.32,2.14-.56a1.39,1.39,0,0,1,0,1.18,4.81,4.81,0,0,1-.29.71c0,.09-.18.44-.31.45a.48.48,0,0,0-.45.46.44.44,0,0,0,.45.45c.66-.06,1-.61,1.22-1.16a3.72,3.72,0,0,0,.4-1.66,1.68,1.68,0,0,0-.83-1.42,2,2,0,0,0-1.69,0,6.2,6.2,0,0,0-2.55,2.4,14.37,14.37,0,0,0-1.56,3.23,39.93,39.93,0,0,0-1.07,3.89.44.44,0,0,0,.13.44c-.64,1-1,2.22-1.61,3.17a28.75,28.75,0,0,1-7,7.83c-1.41,1.11-2.89,2.1-4.29,3.22a5.55,5.55,0,0,0-1.41,1.84c-.51,1-1,1.94-1.47,2.93-.75,1.58-1.19,3.31-2.7,4.35-1.35.93-3,1.33-4.39,2.12a9.89,9.89,0,0,0-3.53,3.27,20.37,20.37,0,0,0-1,1.84v0a7.15,7.15,0,0,0-3.47-3.89l-.43-.25a.44.44,0,0,0-.21-.28.51.51,0,0,0-.37,0l-1.61-.83a22.16,22.16,0,0,0-3.08-1.45,4.1,4.1,0,0,0-3.13.23A7,7,0,0,0,129,126.3a16.06,16.06,0,0,0-2.55,4.22,19.47,19.47,0,0,1-2.73,4.77.5.5,0,0,0-.12.33l-.55-.25a.47.47,0,0,0-.62.16.45.45,0,0,0,.16.62l3.41,1.6a.47.47,0,0,0,.62-.16.47.47,0,0,0-.16-.63l-2.13-1,0,0c2.13-2.43,2.82-5.7,4.7-8.28.91-1.26,2.38-2.57,4-2.46a8.12,8.12,0,0,1,2.85,1.12c.81.4,1.62.81,2.41,1.24L137,130.68a.48.48,0,0,0,.16.63.47.47,0,0,0,.63-.17c.45-1,.91-2.1,1.37-3.15a6.45,6.45,0,0,1,3.3,3.5.45.45,0,0,0,.64.27c-.41.86-.81,1.72-1.28,2.53a15.25,15.25,0,0,1-3.46,4.39,22.72,22.72,0,0,1-5.43,2.91,19.24,19.24,0,0,0-4.92,2.68,6.35,6.35,0,0,0-1.83,1.93,1.72,1.72,0,0,0-.08.28,6.21,6.21,0,0,0-3.24-3.29,4.78,4.78,0,0,0-2.48-.28,4.53,4.53,0,0,0-2.08,1,6.9,6.9,0,0,0-1.47,1.71,9,9,0,0,0-1.06,2.21,3.84,3.84,0,0,0,0,2.46,4.36,4.36,0,0,0,1.06,1.59c1,1,2.31,1.69,3,2.93.28.51,1.07.05.78-.46a9.66,9.66,0,0,0-2.5-2.52,3.5,3.5,0,0,1-1.62-2.9,5.4,5.4,0,0,1,.74-2.16,7.47,7.47,0,0,1,1.14-1.65,4.14,4.14,0,0,1,1.54-1.11,3.6,3.6,0,0,1,2.08-.12,5.18,5.18,0,0,1,3.36,3.11.45.45,0,0,0,.5.21,3.88,3.88,0,0,0-.59,1,34.35,34.35,0,0,1-4.3,9.35,24.52,24.52,0,0,1-7.38,7,50.5,50.5,0,0,1-5.71,2.83,22.31,22.31,0,0,0-5,2.63,5.5,5.5,0,0,0-.69.67A7.73,7.73,0,0,0,99.09,164a4.05,4.05,0,0,0-4.63-.37c-1.45,1-1.56,3-1.65,4.65a22.64,22.64,0,0,0,.57,6.51c.11.49,1,.4.89-.12l-.13-1.21a.58.58,0,0,0-.17-.34,21.42,21.42,0,0,1-.29-3.83,19.29,19.29,0,0,1,.18-2.52,4.07,4.07,0,0,1,.67-2c.88-1.15,2.54-1,3.66-.3a6.3,6.3,0,0,1,2.55,3A6.85,6.85,0,0,1,101,172a.41.41,0,0,0,.11.43,13.52,13.52,0,0,0-.55,1.83c-.46,1.85-1,4.06-2.53,5.35-1.25,1.07-2.95,1.16-4.32,2a7.41,7.41,0,0,0-1.11.79,7.72,7.72,0,0,0,.11-2.67,6.58,6.58,0,0,0-.83-2.25,4.18,4.18,0,0,1-.44-2.23,15.51,15.51,0,0,0,0-2.81.45.45,0,0,0-.56-.32.48.48,0,0,0-.32.56c.23,1.55-.37,3.16.24,4.67a13.88,13.88,0,0,1,.93,2.13,5.76,5.76,0,0,1,.07,2.15,11.74,11.74,0,0,1-.67,2.54.42.42,0,0,0,0,.29A3.53,3.53,0,0,0,91,185a.45.45,0,0,0,.17.46,8,8,0,0,1-2.06,4.86,4.37,4.37,0,0,1-2.46,1.33c-.42.06-.83.12-1.12-.22a3.45,3.45,0,0,1-.49-1.19,6,6,0,0,0-1.49-2.48c-.84-.87-1.82-1.59-2.6-2.52a5.46,5.46,0,0,1-1.36-3.32,17,17,0,0,1,.48-3.69,32.82,32.82,0,0,0,.57-4.08l0-.08.2-.89A.41.41,0,0,0,81,173a10.14,10.14,0,0,1,2.06-4.26,3.87,3.87,0,0,1,1.76-1.07,7.24,7.24,0,0,1,2.5-.1A2.86,2.86,0,0,1,89,168c.57.49.27,1.32.07,1.91-.61,1.75-1.23,3.49-1.84,5.24l-1,2.89-.53,1.5-.25.72-.12.34,0,.09a.58.58,0,0,0-.32.59c-.43-.23-.87-.46-1.3-.71a.46.46,0,0,0-.46.79,39.1,39.1,0,0,0,4.32,2.1.46.46,0,0,0,.56-.32.47.47,0,0,0-.32-.56c-.7-.29-1.4-.6-2.08-.94a.57.57,0,0,0,.22-.16,2.12,2.12,0,0,0,.32-.72l1.08-3.07q1.07-3.08,2.15-6.13c.18-.51.36-1,.53-1.51a3.78,3.78,0,0,0,.26-1.4,2,2,0,0,0-1.57-1.82,5.39,5.39,0,0,0-1.19-.2,12.06,12.06,0,0,0-1.47-.07,5,5,0,0,0-2.71.78,7.77,7.77,0,0,0-2.8,4.23c0-.12,0-.24-.07-.35A7.46,7.46,0,0,0,78.79,168c-.33-.39-.45-.91-.78-1.31s-.91-1-1.33-1.46a16,16,0,0,1-3-6.93c-.48-2.26-.57-4.62-1.24-6.83a.6.6,0,0,0,.19-.25c.65-1.62,2-3.29,3.91-3.27a2.82,2.82,0,0,1,2.09.88,3.12,3.12,0,0,1,.36,2.82c-.15.64-.36,1.28-.57,1.91a18.38,18.38,0,0,1-.71,1.92.48.48,0,0,0,.16.63.47.47,0,0,0,.63-.17A26.63,26.63,0,0,0,79.79,152a4.26,4.26,0,0,0-.34-3.59,3.62,3.62,0,0,0-2.56-1.4,4.2,4.2,0,0,0-2.94.85,6.51,6.51,0,0,0-2,2.43c-1.77-4.45-5.43-7.76-8.12-11.64a16.56,16.56,0,0,1-3.74-9.41.27.27,0,0,0,.14-.05,10.82,10.82,0,0,1,2.87-1.42,8.33,8.33,0,0,1,3.16-.48,2.73,2.73,0,0,1,2.26,1.29,1.75,1.75,0,0,1,.24,1.07,1.72,1.72,0,0,1-.61,1,6,6,0,0,1-1.29.81l-1.4.74,0-.05a.46.46,0,0,0-.79.46l.24.43a.46.46,0,0,0,.62.17l1.79-.94a8.65,8.65,0,0,0,1.38-.87,2.52,2.52,0,0,0,.86-2.83,3.4,3.4,0,0,0-2.42-2.1,7.33,7.33,0,0,0-3.57.18,12.22,12.22,0,0,0-3.51,1.54c-.08-1.69,0-3.39,0-5.08a18,18,0,0,0-.29-3.6,7.74,7.74,0,0,0,5.38,1.19,13.06,13.06,0,0,0,10.43-8.42h0a3.12,3.12,0,0,1,1.85,2.73,15,15,0,0,1-.23,4.54c-.48,3.31-1.28,6.59-1.54,9.93a.5.5,0,0,0,0,.17l0,.49a22.12,22.12,0,0,0,.19,4.67,5.05,5.05,0,0,0-6.27,2.29,4,4,0,0,0-.2,3.77,4,4,0,0,0,2.72,1.9,7.66,7.66,0,0,0,4.55-.82.47.47,0,0,0,.21-.52l-.37-1a.46.46,0,0,0-.56-.32.45.45,0,0,0-.31.56l.23.68a6.8,6.8,0,0,1-3.17.63,3.3,3.3,0,0,1-2.31-1.19,2.87,2.87,0,0,1-.15-2.89,4.14,4.14,0,0,1,5.44-2.16.57.57,0,0,0,.36,0,15,15,0,0,0,1.12,3.39,14.67,14.67,0,0,0,2.62,3.63,10.87,10.87,0,0,1,2.7,3.76,33.5,33.5,0,0,0,1.46,4.62,10.65,10.65,0,0,0,1.3,1.9.6.6,0,0,0-.11.06A20.22,20.22,0,0,0,79.56,160a22.13,22.13,0,0,0-1,2.36.45.45,0,1,0,.87.24,19.4,19.4,0,0,1,4.46-7.15c.45-.46.93-.9,1.42-1.31a.44.44,0,0,0,.26.17,3.25,3.25,0,0,1,2.17,2.14,8.56,8.56,0,0,1,.19,4.09c-.1.77-.22,1.54-.26,2.32a2.72,2.72,0,0,0,.43,1.85c.87,1.12,2.45.6,3.45,0,1.25-.77,2.41-2,2.17-3.58a.45.45,0,1,0-.87.24c.16,1.1-.9,2-1.73,2.53S89,165,88.65,163.74a5.3,5.3,0,0,1,0-1.82c.09-.74.2-1.48.28-2.22a8.11,8.11,0,0,0-.35-3.57,14.41,14.41,0,0,0,6.48,2.59,10,10,0,0,0,8-2.46,18.77,18.77,0,0,0,3.26-5,.28.28,0,0,0,.1.09c2.19,1.61,4.85,3.63,4.84,6.64a3.75,3.75,0,0,1-1.59,3.06,3.68,3.68,0,0,1-3.33.53,3.86,3.86,0,0,1-2.51-2.75c-.14-.57-1-.33-.88.24a4.77,4.77,0,0,0,2.53,3.13,4.51,4.51,0,0,0,4.11,0,4.71,4.71,0,0,0,2.49-3.27,6.27,6.27,0,0,0-1.13-4.57,16.52,16.52,0,0,0-4.07-3.75.35.35,0,0,0-.14-.06,13.85,13.85,0,0,1,1.34-2,43.46,43.46,0,0,1,6.74-5.89,30.22,30.22,0,0,0,3.33-3,25.92,25.92,0,0,0,2.86-3.66c1.75-2.64,3.15-5.48,4.87-8.14a29.64,29.64,0,0,1,5.73-6.51c2.41-2,5-3.8,7.61-5.63a2.6,2.6,0,0,1,1.37,2.31,6.84,6.84,0,0,1-1.52,3.83c-.32.49.47,1,.79.46.86-1.31,1.77-2.84,1.63-4.47a3.64,3.64,0,0,0-1.46-2.71,52.91,52.91,0,0,0,4.75-3.82c.37-.35.73-.7,1.08-1.06a11.23,11.23,0,0,0,2-2.2.51.51,0,0,0,.44-.11,2.13,2.13,0,0,1,2.83.66c.9,1.27.44,3-.3,4.25a27.82,27.82,0,0,1-3.2,3.75,40.78,40.78,0,0,0-3.11,4.06,39.93,39.93,0,0,0-2.81,4.93.48.48,0,0,0,.16.63.47.47,0,0,0,.63-.17,38.65,38.65,0,0,1,5.91-9,23.15,23.15,0,0,0,3.4-4.12c.78-1.45,1.1-3.45.07-4.87a3.16,3.16,0,0,0-3.3-1.26,20.64,20.64,0,0,0,1.21-2.09c1.46-2.89,2.44-6.2,4.87-8.46a7,7,0,0,1,4-2c1.51-.13,2.87.77,4.36.65a.48.48,0,0,0-.11.3.47.47,0,0,0,.45.45c.81.09,1.22,1,1.22,1.76a8.06,8.06,0,0,1-1.08,3.19L162,104.17a5.72,5.72,0,0,1-.67,1.33c-.34.38-.83,0-1.16-.23a19.44,19.44,0,0,1-2.86-2.15c.64-1,1.28-2,1.91-3,.32-.49-.47-.95-.78-.46l-3.2,5c-.31.49.47.95.79.46l.78-1.22a20.08,20.08,0,0,0,2.83,2.12,2.13,2.13,0,0,0,1.78.5,2.16,2.16,0,0,0,1.1-1.3l1.77-3.87a9.27,9.27,0,0,0,1.28-3.89,2.62,2.62,0,0,0-1.84-2.54,4.63,4.63,0,0,0,2.61-2,5.94,5.94,0,0,0,.75-1.83,12.27,12.27,0,0,0,8.38-1.78,19.77,19.77,0,0,0,5.91-5.86A43.79,43.79,0,0,0,185.57,75a80.4,80.4,0,0,1,4-9c1.37-2.47,3.54-5,6.63-5a4,4,0,0,1,.91.11c.05.3.1.6.17.91a41.68,41.68,0,0,0,1.63,5.88c.3.83.63,1.65,1,2.47C200.27,71.37,200.55,72,199.89,72.94Z"/><path class="cls-3" d="M139,57c-.4-2.4-3.07-3.74-5.49-4.05s-5,0-7.24-.84c-2.12-.79-3.83-2.52-6-3s-4.75.51-7.15.45c-4-.09-7.33-3-11.24-3.74-4.52-.8-9.86,1.33-13.39-1.61-1.08-.9-1.85-2.22-3.14-2.82-1.63-.76-3.53-.13-5.33-.11-5,.07-9-4.46-13.88-4.83-3.57-.27-7.18,1.69-10.63.73-1.9-.52-3.45-1.87-5.17-2.83-6.9-3.85-16.19-1.38-22.77-5.75a18.27,18.27,0,0,0-3.61-2.28c-3-1.07-6.49.72-9.48-.39C12.83,25.29,11.66,24,10.32,23s-3.16-1.72-4.65-1l-.38.42c-1.76.92-2,3.37-1.49,5.27s1.68,3.63,2,5.59c.22,1.54-.09,3.12.23,4.64C6.46,40.25,8.3,42,9.2,44.22c1.62,4,0,8.73,1.66,12.65,1.12,2.57,3.56,4.47,4.23,7.19.44,1.78,0,3.66.34,5.47.68,4.15,4.84,7,5.65,11.18.57,2.86-.56,6,.57,8.68.86,2.06,2.86,3.42,4,5.35,1.67,2.89,1.1,6.54,2,9.75,1.29,4.56,5.4,7.87,6.84,12.39s0,9.53,1.44,14c1.58,4.9,6.37,8.35,7.56,13.35.65,2.72.19,5.73,1.52,8.19.74,1.38,2,2.46,2.6,3.92,1,2.48-.16,5.3.15,8,.47,4.08,4.28,7.12,5,11.17.31,1.83,0,3.78.65,5.5a9.56,9.56,0,0,0,3.25,3.62c2.86,2.26,6,4.61,9.62,4.74,1.73.06,3.48-.4,5.18-.06,2,.42,3.68,1.92,5.52,2.93,4.19,2.29,10.75.88,11.73-3.79.64-3-1.26-6-3.07-8.53l-4.51-6.32-2.22-5.71-3.14-8.1a27.81,27.81,0,0,1-2-6.82c-.3-2.56.08-5.26-.93-7.63-1.2-2.8-4.18-4.69-4.86-7.67-.37-1.66,0-3.4-.18-5.09-.44-3.32-3.28-5.84-4.14-9.08-.68-2.56-.05-5.3-.36-7.94-.83-7.11-8.18-12.3-8.52-19.45-.11-2.21.47-4.53-.33-6.59-.6-1.55-1.89-2.72-2.7-4.16-1.93-3.43-1-8-3-11.35a29.66,29.66,0,0,1-2.33-3.51c-.75-1.79-.38-3.83-.25-5.77s-.1-4.16-1.63-5.35H45C48.76,58.09,52.45,62,56.46,62a18.31,18.31,0,0,1,3.3-.11c1.46.27,2.57,1.39,3.77,2.26a12.77,12.77,0,0,0,7,2.45c1.83.08,3.7-.23,5.45.29A19.6,19.6,0,0,1,80,69.1a15.32,15.32,0,0,0,6.81,2.09c2.8.19,5.72-.39,8.36.58,2,.73,4,2.33,6,1.57a.81.81,0,0,0,.52-.45c.06-.22-.15-.51-.37-.43l-.44-1.17a9.12,9.12,0,0,0,9.65,5c1.61-.3,3.37-1,4.79-.21a9.39,9.39,0,0,1,1.49,1.33,5.81,5.81,0,0,0,8.5-1.2c.52-.86.8-1.84,1.39-2.64,1.16-1.58,3.2-2.15,4.86-3.18,3.33-2,5-5.9,6.54-9.51A7.24,7.24,0,0,0,139,57Z"/><path class="cls-2" d="M139.38,56a2.75,2.75,0,0,0-1-1.55c-2-1.86-4.78-2.08-7.34-2.25a15.5,15.5,0,0,1-4.5-.65c-1.61-.6-2.84-1.75-4.34-2.51a6.45,6.45,0,0,0-4.23-.57,20.65,20.65,0,0,1-5.54.44c-3.46-.31-6.25-2.68-9.57-3.52-2.94-.73-6,.06-9,0a8.85,8.85,0,0,1-4.33-1.1,9.68,9.68,0,0,1-1.86-1.64,5.64,5.64,0,0,1-.46-.63,5.64,5.64,0,0,0-.92-.76,2.46,2.46,0,0,0-1.47-.67c-.93,0-1.88.06-2.81.1a16.57,16.57,0,0,1-5.3-.4,21.08,21.08,0,0,1-4.34-2.2,18.11,18.11,0,0,0-4.23-1.85A13.14,13.14,0,0,0,63,36.14c-.95.14-1.88.34-2.82.53a9.75,9.75,0,0,1-2.84.35A10.07,10.07,0,0,1,52.51,35a19.94,19.94,0,0,0-4.42-2.35c-3.29-1.25-6.88-1.22-10.34-1.57a34.13,34.13,0,0,1-5.51-.85,14.06,14.06,0,0,1-2.53-1,23.12,23.12,0,0,1-2.29-1.5c-.67-.46-1.36-.9-2.06-1.31a6.17,6.17,0,0,0-2.43-1,23.68,23.68,0,0,0-4.9.34,6.78,6.78,0,0,1-4.5-.86c-.66-.45-1.23-1.08-1.86-1.59A11.58,11.58,0,0,0,9.83,22a4.93,4.93,0,0,0-4-.44A.45.45,0,0,0,5.5,22a.43.43,0,0,0-.18.06,4.23,4.23,0,0,0-2,3.65c-.06,1.86.77,3.51,1.46,5.18a9.76,9.76,0,0,1,.83,3.35c0,1.14-.07,2.27.09,3.4A12.63,12.63,0,0,0,8,42.35a11.53,11.53,0,0,1,1.6,4,.4.4,0,0,0,0,.41l.07.08a14.59,14.59,0,0,1,.14,1.51c.08,2-.06,3.93.2,5.88a11.17,11.17,0,0,0,2.2,5.23c1.05,1.46,2.3,2.89,2.74,4.68.5,2.06-.06,4.23.52,6.29a15.27,15.27,0,0,0,2.36,4.48,22,22,0,0,1,2.75,4.61c.74,2,.45,4.07.4,6.14a8.35,8.35,0,0,0,1.33,5.25c1.1,1.55,2.65,2.77,3.48,4.51s.95,4,1.16,6a15.87,15.87,0,0,0,1.42,5.41c1.65,3.37,4.49,6.08,5.79,9.64,1.49,4.09.43,8.55,1.18,12.76.64,3.66,3,6.47,5.07,9.4A18.54,18.54,0,0,1,43,143.39a30.31,30.31,0,0,1,.86,5.92A9.87,9.87,0,0,0,46,154.25a8.94,8.94,0,0,1,1.55,2.47,7.66,7.66,0,0,1,.25,3.23c-.16,2-.5,3.94.1,5.89a19.57,19.57,0,0,0,2.28,4.49,15.62,15.62,0,0,1,2.34,5c.37,1.94-.05,4,.74,5.85s2.46,3.05,4,4.24A26.87,26.87,0,0,0,62,188.59a11.36,11.36,0,0,0,5.76,1.15,19.47,19.47,0,0,1,3.24-.12,7.73,7.73,0,0,1,3.13,1.2,19.69,19.69,0,0,0,4.57,2.49,10.22,10.22,0,0,0,4.15.33c2.58-.32,5.18-1.67,6.19-4.2,1.54-3.85-1.29-7.64-3.41-10.61l-3.92-5.5-5.16-13.28a32.76,32.76,0,0,1-2.09-6.61c-.35-2.16-.1-4.38-.5-6.53A10.92,10.92,0,0,0,71.42,142c-1.12-1.37-2.4-2.75-2.8-4.53a15,15,0,0,1-.1-3.48,8.85,8.85,0,0,0-.39-2.94,27.27,27.27,0,0,0-2.59-4.93,12.16,12.16,0,0,1-1.17-2.57,12,12,0,0,1-.39-3.53,24.36,24.36,0,0,0-.33-6.21,13.56,13.56,0,0,0-.44-1.41.49.49,0,0,0,.1-.43.42.42,0,0,0-.39-.32,46.85,46.85,0,0,0-4-6.93c-1.89-3-3.59-6.08-3.5-9.7,0-2.1.39-4.26-.56-6.23C54,87,52.39,85.66,51.74,83.71A18.44,18.44,0,0,1,51,80a.48.48,0,0,0-.11-.85c0-.39-.1-.78-.16-1.17a11.43,11.43,0,0,0-2.17-5.4,9.09,9.09,0,0,1-1.63-2.68,9,9,0,0,1-.21-3.35c.14-1.84.42-3.75-.24-5.52a4.85,4.85,0,0,0-.73-1.32,7.86,7.86,0,0,1,5,.9c.88.4,1.75.83,2.65,1.21a7.48,7.48,0,0,0,3,.63c1,0,2-.15,3-.18a2.16,2.16,0,0,1,1.23.2,13.73,13.73,0,0,1,1.23.73,25.68,25.68,0,0,0,4.81,3.08,18.14,18.14,0,0,0,6.22.75c.52,0,1,0,1.57.06a6.15,6.15,0,0,1,1.48.21,13.94,13.94,0,0,1,2.68,1.26,21.64,21.64,0,0,0,5.57,2.67,25.83,25.83,0,0,0,6.21.47c1.06,0,2.13,0,3.19.1A5.45,5.45,0,0,1,95,72a9.15,9.15,0,0,1,1.4.7,12.84,12.84,0,0,0,2.4,1.05,4,4,0,0,0,2.4.15,2.66,2.66,0,0,0,.82-.46,10.78,10.78,0,0,0,3.48,2.77,8.07,8.07,0,0,0,5,.46c.83-.14,1.63-.39,2.45-.6a3.1,3.1,0,0,1,2.54.46c1.27.78,2.08,2.06,3.54,2.53a6.14,6.14,0,0,0,4-.21A5.4,5.4,0,0,0,126,76.36c.85-1.47,1.38-3,3-3.84a25.36,25.36,0,0,0,3.89-2.22,12.52,12.52,0,0,0,3-3.24,26.36,26.36,0,0,0,2.46-4.28,13.9,13.9,0,0,0,1.19-4.38A10.89,10.89,0,0,0,139.38,56ZM57.51,61.45a7.77,7.77,0,0,1-3-.19,21.83,21.83,0,0,1-2.68-1.15,11.12,11.12,0,0,0-5.38-1.48,5.52,5.52,0,0,0-1.39.27l-.09,0a.45.45,0,0,0-.36,0,5.72,5.72,0,0,0-4.32-2.67,7,7,0,0,0-5.54,2.09,5.27,5.27,0,0,0-1.42,2.59l-.58-.49a.47.47,0,0,0-.65,0,.46.46,0,0,0,0,.64l3.56,3a.47.47,0,0,0,.65,0,.46.46,0,0,0,0-.64l-2.23-1.86a.63.63,0,0,0,.1-.27,5.08,5.08,0,0,1,3.17-3.65,5.33,5.33,0,0,1,4.9.19,4.44,4.44,0,0,1,1.77,1.92.47.47,0,0,0,.63.16l0,0c1.2,1.19,1.35,3,1.25,4.64-.12,2.09-.55,4.26.34,6.25A13.9,13.9,0,0,0,48,73.31,8.93,8.93,0,0,1,49.37,76a19.1,19.1,0,0,1,.61,3.1,22,22,0,0,0-9.09,1.85.45.45,0,0,0-.16.62.46.46,0,0,0,.62.16A21,21,0,0,1,50.09,80c.08.59.15,1.18.25,1.76A11.45,11.45,0,0,0,52.54,87a12.59,12.59,0,0,1,1.62,2.48,7.74,7.74,0,0,1,.45,3.34,19.73,19.73,0,0,0,.28,5.69,18.62,18.62,0,0,0,2,4.57c1.66,2.94,3.81,5.63,5.15,8.75A18,18,0,0,0,54.85,115a.47.47,0,0,0-.16.62.45.45,0,0,0,.62.16,17.54,17.54,0,0,1,7-3.1,13.78,13.78,0,0,1,.8,4.77c0,2.21-.27,4.48.44,6.62a28.55,28.55,0,0,0,2.61,5,12.61,12.61,0,0,1,1.15,2.54,9.85,9.85,0,0,1,.26,3.2A10.86,10.86,0,0,0,67.8,138a7.77,7.77,0,0,0,1.08,2.27c1,1.49,2.31,2.73,3.24,4.26,1.14,1.88,1.18,4,1.25,6.17,0,.66.07,1.31.14,1.95h0c-2.85-.81-6.16-1.61-8.9,0a.45.45,0,0,0,.46.78c2.51-1.45,5.6-.62,8.19.11a.4.4,0,0,0,.39-.07,21.59,21.59,0,0,0,.93,3.81c.77,2.25,1.69,4.46,2.56,6.69.8,2.05,1.59,4.1,2.39,6.16a19.73,19.73,0,0,1-3.8,2.21,14.7,14.7,0,0,1-2.22.8,5.16,5.16,0,0,1-2.24.2,3,3,0,0,1-1.8-.95c.48-.86,1-1.73,1.42-2.6.27-.52-.52-1-.79-.46-.88,1.68-1.82,3.33-2.79,5-.31.5.48,1,.78.46s.61-1,.9-1.53a4.58,4.58,0,0,0,4.09,1,12.1,12.1,0,0,0,2.48-.78A19.61,19.61,0,0,0,79.84,171l.9,2.32a.39.39,0,0,0,.08.33l.12.17L81,174a.45.45,0,0,0,.27.27l3.58,5a30.93,30.93,0,0,1,2.68,4.12.4.4,0,0,0-.38.32,6,6,0,0,1-2.12,3.34,4.89,4.89,0,0,1-3.73,1,4.29,4.29,0,0,1-2.07-.9A.68.68,0,0,0,79,187a2.89,2.89,0,0,0-1-1.72.47.47,0,0,0-.65,0,.46.46,0,0,0,0,.64,1.89,1.89,0,0,1,.57.74l0,.06a.56.56,0,0,1,0,.12,2,2,0,0,1,.07.26,1.48,1.48,0,0,1,0,.44,2,2,0,0,1-.7,1.63.46.46,0,1,0,.65.65,2.91,2.91,0,0,0,.92-1.76,5.6,5.6,0,0,0,4.13.83A6.11,6.11,0,0,0,87,186.35a7.14,7.14,0,0,0,1-2c.06.14.11.28.17.43a5.89,5.89,0,0,1-.32,5.18,6.16,6.16,0,0,1-3.3,2.43,9.6,9.6,0,0,1-8.5-1.42,13.83,13.83,0,0,0-4-2,3.9,3.9,0,0,0,1.28-4.26,5.21,5.21,0,0,0-.6-1.41c.56.08,1.13.14,1.7.19a34.83,34.83,0,0,0,4.68.11c.89,0,1.77-.11,2.65-.22a.47.47,0,0,0,.45-.45.46.46,0,0,0-.45-.46,35.68,35.68,0,0,1-5.56.23c-.92,0-1.83-.11-2.74-.22a10.29,10.29,0,0,1-1.22-.19,1.34,1.34,0,0,1-.38-.14.26.26,0,0,1-.14-.19.4.4,0,0,0-.49-.31,10.37,10.37,0,0,0-1.43-.94c-1.82-1-3.88-1.63-5.48-3a4.88,4.88,0,0,1-1.8-2.79,6.83,6.83,0,0,1,.63-3.55,15.59,15.59,0,0,0,1.44-6.22,12.18,12.18,0,0,0-.82-4,61.9,61.9,0,0,0,9,1.41.46.46,0,0,0,.45-.46.45.45,0,0,0-.45-.45A59.19,59.19,0,0,1,63.28,160c-.1-.19-.2-.38-.31-.57a17,17,0,0,0-2.61-3.16.37.37,0,0,0-.13-.33c-.2-.18-.4-.34-.61-.5s-.39-.47-.57-.72a4.94,4.94,0,0,1-1-2.93,21.87,21.87,0,0,1,.57-3.77,10.68,10.68,0,0,0,.18-2h0a13,13,0,0,1,11.35,1.61c.48.33.94-.45.45-.78a14,14,0,0,0-11.89-1.76,5.8,5.8,0,0,0-.6-1.92,5.62,5.62,0,0,0,2.67.26,4.38,4.38,0,0,0,3.18-1.9,3.28,3.28,0,0,0,.29-2.07c-.1-.74-.23-1.48-.38-2.21a33.29,33.29,0,0,0-1.12-4.2,36.16,36.16,0,0,0-1.48-3.73,5.72,5.72,0,0,1,1.43.11.48.48,0,0,0,.56-.32.46.46,0,0,0-.32-.56,7,7,0,0,0-2.09-.1.45.45,0,0,0-.81.12,6.93,6.93,0,0,0-2.38,1c-.5.31,0,1.1.46.79a6.28,6.28,0,0,1,2.2-.88,34.64,34.64,0,0,1,2.46,7.07c.16.65.29,1.3.4,2a7.83,7.83,0,0,1,.2,1.92c-.09,1.13-1.28,1.79-2.26,2a4.51,4.51,0,0,1-3.59-.57.41.41,0,0,0-.38,0,18.79,18.79,0,0,0-3-2.51,10.66,10.66,0,0,1-3.81-3.91,13.18,13.18,0,0,1-.8-6.07,32.19,32.19,0,0,0-.1-6.13,17.38,17.38,0,0,0-.43-2,11.36,11.36,0,0,0,3.64,2.44,21.27,21.27,0,0,0,8,1.44c.59,0,.59-.89,0-.91-4.12-.1-8.66-.83-11.47-4.15a7.86,7.86,0,0,1,.34-10.41,8,8,0,0,1,5.38-2.4.46.46,0,0,0,0-.91,8.94,8.94,0,0,0-5.48,2.15,8.47,8.47,0,0,0-2.88,5.3,8.76,8.76,0,0,0-.08,1.45,52.43,52.43,0,0,0-3-4.65c-1.32-1.89-2.91-3.83-3.38-6.15-.42-2.12.21-4.28.3-6.42a.42.42,0,0,0,.27-.21,5.45,5.45,0,0,1,2.87-2.28,7.5,7.5,0,0,1,4.2-.16,11.14,11.14,0,0,1,2.44.89.47.47,0,0,0,.26.05,6.2,6.2,0,0,1-.2,2.64c-.17.56.71.8.88.24a7.25,7.25,0,0,0-1.3-6.55.46.46,0,0,0-.64,0,.47.47,0,0,0,0,.64,6.16,6.16,0,0,1,1,2c-2.75-1.24-6.08-1.59-8.65.26a6.12,6.12,0,0,0-1.2,1.13,19.47,19.47,0,0,0-1.7-6.26c-.15-.35-.32-.69-.48-1a12.19,12.19,0,0,0,7.08,1.11c1-.1,2-.26,3-.42a.45.45,0,0,0,.31-.56.46.46,0,0,0-.56-.31c-2.93.46-6.16,1-8.95-.38a6.87,6.87,0,0,1-1.84-1.27.19.19,0,0,0-.07-.06c-.63-1.1-1.31-2.18-2-3.23-1.21-1.83-2.76-3.61-3.37-5.77A6,6,0,0,1,32,74.84a7,7,0,0,0,.4-2.59.4.4,0,0,0,.52.07,10.23,10.23,0,0,1,8.89-.72,9.85,9.85,0,0,1,2.27,1.25.46.46,0,0,0,.62-.16.47.47,0,0,0-.16-.62,11.13,11.13,0,0,0-9.49-1.66,10.8,10.8,0,0,0-2.59,1.12.4.4,0,0,0-.13.13v0c-.43-2.27-2-4.24-3-6.28A20.2,20.2,0,0,1,28,51.14a14.71,14.71,0,0,1,1.4-3.26,8.25,8.25,0,0,1,2-2.61c1.15-.84,2.19.2,3.05.94a5.06,5.06,0,0,0,2.67,1.4A7.41,7.41,0,0,0,41,46.74a.41.41,0,0,0,.44.14c.28-.07.5.14.68.33a4.34,4.34,0,0,1,.55.9,14.67,14.67,0,0,1,.91,2.3,15.28,15.28,0,0,1,.62,4.94c0,.58.88.58.91,0a15.9,15.9,0,0,0-.44-4.4,14.7,14.7,0,0,0-.66-2A9.66,9.66,0,0,0,43.05,47a2.62,2.62,0,0,0-.79-.8,12.29,12.29,0,0,1,1.35-.5,4.08,4.08,0,0,1,3.23.19A8.76,8.76,0,0,1,49.15,48a17.94,17.94,0,0,0,9.3,5.93c-.11.23-.23.45-.36.67a6.55,6.55,0,0,1-.52.75,8.55,8.55,0,0,1-.65.7l-.37.33a3.18,3.18,0,0,1-.35.26.48.48,0,0,0-.16.63.47.47,0,0,0,.62.16,8,8,0,0,0,1.56-1.46,4.33,4.33,0,0,1,3.21,2.64,2.19,2.19,0,0,1-.25,1.88,1.73,1.73,0,0,1-1.59.76.37.37,0,0,0-.27.09l-.32,0Zm70.14,10.78a6.26,6.26,0,0,0-1.52,1.87c-.66,1.18-1.18,2.72-2.39,3.47a5.82,5.82,0,0,1-4.13.76c-1.47-.35-2.3-1.63-3.51-2.44a4.6,4.6,0,0,0-1.92-.77,5.17,5.17,0,0,0-2.23.32,9.49,9.49,0,0,1-5.38.25,8.62,8.62,0,0,1-4-3v0A21.32,21.32,0,0,0,101,68.38l2-.5a.45.45,0,0,0-.24-.87L99,67.93a.46.46,0,0,0,.24.88l.81-.2a19.29,19.29,0,0,1,1.52,4,2,2,0,0,1-1.94.42,8.36,8.36,0,0,1-1.2-.38,10.18,10.18,0,0,1-1.08-.44A9.54,9.54,0,0,0,94.55,71a21.25,21.25,0,0,0-2.77-.2,4.41,4.41,0,0,0,1.81-4A7.34,7.34,0,0,0,91.38,62a7.46,7.46,0,0,0-2.59-1.66.46.46,0,0,0-.56.32.47.47,0,0,0,.31.56c2.76,1.06,4.95,4.42,3.87,7.36A2.69,2.69,0,0,1,91,70.17a.46.46,0,0,0-.19.58,32.27,32.27,0,0,1-5.56-.26,10.81,10.81,0,0,1-3-.94c-.9-.44-1.75-1-2.61-1.47a24.18,24.18,0,0,0-2.72-1.42,5.42,5.42,0,0,0-1.37-.41c-.51-.07-1-.1-1.56-.13-2.07-.12-4.2.07-6.23-.46a15.75,15.75,0,0,1-4.87-2.85c-.39-.28-.78-.55-1.18-.79l-.53-.32a2.84,2.84,0,0,0,1.22-1.9,4,4,0,0,0-1.77-3.74,6.84,6.84,0,0,0-1.84-.9,7.4,7.4,0,0,0,.54-1l0-.07h.08a48.6,48.6,0,0,0,7.34.23,14.47,14.47,0,0,1,3.93.56,16.5,16.5,0,0,1,1.66.61.27.27,0,0,0,.07.08A14.56,14.56,0,0,1,75.73,59a4.77,4.77,0,0,1,.56,3.79,2.93,2.93,0,0,1-1.14,1.58c-.49.32,0,1.11.46.79a4.31,4.31,0,0,0,1.76-3.86A7,7,0,0,0,75.28,57L75,56.68a13.38,13.38,0,0,0,5.61,1.42,6.84,6.84,0,0,0,.91-.06.68.68,0,0,0,.12.26,9.52,9.52,0,0,1,2.11,5.85.46.46,0,0,0,.91,0,10.52,10.52,0,0,0-2.19-6.26,29.45,29.45,0,0,1,5.42-1c4.18,0,7.28,3.63,11.26,4.47,2.34.48,4.65-.15,7-.44a8.06,8.06,0,0,1,6.51,1.58c1.5,1.21,2.68,2.8,4.29,3.87a.53.53,0,0,0,.12.41,5.85,5.85,0,0,1,.29,6.77.47.47,0,0,0-.06.15,8.69,8.69,0,0,0-1.68-.46.47.47,0,0,0-.56.32.46.46,0,0,0,.32.56,8.55,8.55,0,0,1,4.29,2c.44.39,1.08-.25.65-.64A9.93,9.93,0,0,0,118.09,74l0,0a6.77,6.77,0,0,0,.22-6.9c1.84.67,3.82.5,5.78.81s4.54,1.71,4.12,4A4.67,4.67,0,0,0,127.65,72.23Zm8.3-7.06A16.41,16.41,0,0,1,133.06,69a17.19,17.19,0,0,1-3.63,2.31l-.25.12a4.58,4.58,0,0,0-2.54-3.62c-2.1-1.18-4.55-.75-6.82-1.2s-3.89-2.24-5.54-3.85a11.83,11.83,0,0,0-2.47-1.89,5.45,5.45,0,0,0,2.84-2.48,14.4,14.4,0,0,0,2.16-4.79,6.64,6.64,0,0,0-.06-3,.46.46,0,0,0-.88.24,6.87,6.87,0,0,1-.61,4.58,20.34,20.34,0,0,1-1.18,2.21,8.52,8.52,0,0,1-1.21,1.6A2.7,2.7,0,0,1,111,60a.4.4,0,0,0-.4.26,6.77,6.77,0,0,0-1.49-.37c-2.58-.35-5.12.57-7.68.68a11.16,11.16,0,0,1-6-1.75,26.07,26.07,0,0,0-5.35-2.57,5.58,5.58,0,0,0-.68-.16,8,8,0,0,0,1.1-7c-.19-.56-1.06-.32-.88.24a7,7,0,0,1-1,6.43.48.48,0,0,0-.12.26,17.82,17.82,0,0,0-5.27.79,10.78,10.78,0,0,1-3.75.35,12.84,12.84,0,0,1-3.69-1.08c-2.2-1-4.33-2.12-6.73-2.47l-1.19-.12a7.53,7.53,0,0,0,2.51-3.84,14,14,0,0,0,.17-9c-.18-.56-1.06-.32-.88.24a13.07,13.07,0,0,1-1,10.33A3.72,3.72,0,0,1,66.88,53a.47.47,0,0,0-.33.43c-1.76,0-3.52.1-5.27,0A15.31,15.31,0,0,1,55,51.6a18.2,18.2,0,0,1-5-4c-1.09-1.25-2.25-2.55-3.86-2.95a3.81,3.81,0,0,0,1-1.73,8.55,8.55,0,0,0,.28-2.14,10.88,10.88,0,0,0-1-4.78.47.47,0,0,0-.63-.16.47.47,0,0,0-.16.62,9.85,9.85,0,0,1,.87,5,4.65,4.65,0,0,1-.52,2,1.24,1.24,0,0,1-1.24.78.46.46,0,0,0-.45.37c-1.89.29-3.6,1.5-5.43,2a3.73,3.73,0,0,1-3.67-.91,5.54,5.54,0,0,0-2.54-1.59,2.55,2.55,0,0,0-2.06.69A4.78,4.78,0,0,0,30,42.91a41.47,41.47,0,0,0-2.16-3.55,25.67,25.67,0,0,0-5.36-6.07,15.4,15.4,0,0,0-3.95-2.23h-.07c0-.14.05-.28.07-.42a10.12,10.12,0,0,0,.06-2.13.47.47,0,0,0-.46-.46.46.46,0,0,0-.45.46,9.81,9.81,0,0,1-1.94,6.63,9.28,9.28,0,0,1-1.36,1.44.46.46,0,0,0,.65.65,10.59,10.59,0,0,0,3.24-5.29h0a15.67,15.67,0,0,1,6,4.27,37.23,37.23,0,0,1,4.41,6.22c.6,1,1.65,2.73.47,3.75a.43.43,0,0,0-.11.46c-.19.31-.36.61-.52.88a16.78,16.78,0,0,0-2,6.28,20.93,20.93,0,0,0,.62,8,6.33,6.33,0,0,0-2.7-1.23,6.27,6.27,0,0,0-4.06.59,6.13,6.13,0,0,0-1.85,1.43.47.47,0,0,0,0,.64.46.46,0,0,0,.65,0,5.4,5.4,0,0,1,8.13,0,.39.39,0,0,0,.31.14,24.45,24.45,0,0,0,1.89,4.17,24.38,24.38,0,0,1,1.72,3.33,5.46,5.46,0,0,1-.09,3.82,9.71,9.71,0,0,0-.43,1.87.64.64,0,0,0-.08.14,8.74,8.74,0,0,1-4.82,5.1,8.45,8.45,0,0,1-2,.56.46.46,0,0,0-.32.56.47.47,0,0,0,.56.31A9.61,9.61,0,0,0,30.5,79a6,6,0,0,0,.33-.54,9.53,9.53,0,0,0,1,2.45c.92,1.64,2.07,3.15,3.12,4.72A7.65,7.65,0,0,0,33.31,85a10.19,10.19,0,0,0-5.66.16,15.22,15.22,0,0,0-1.6.57l-.79.34-.28.14a.49.49,0,0,0-.34-.13.62.62,0,0,0-.57.47.58.58,0,0,0,.43.68,1.18,1.18,0,0,0,.81-.18,15.54,15.54,0,0,1,3.18-1.17,8.44,8.44,0,0,1,5.85.5,5.86,5.86,0,0,1,2.25,2,24.87,24.87,0,0,1,2.17,5,16.05,16.05,0,0,1,.69,3.63,19.64,19.64,0,0,1-.24,3.75,16.85,16.85,0,0,0-.17,2.65.41.41,0,0,0-.33.42,4.78,4.78,0,0,1-5.15,4.53.45.45,0,0,0-.46.45.47.47,0,0,0,.46.46,5.72,5.72,0,0,0,5.65-3.48c0-.13.11-.27.15-.41a11.11,11.11,0,0,0,1,2.21,33.41,33.41,0,0,0,2.35,3.58,5.72,5.72,0,0,0-3.35,1.34A16.46,16.46,0,0,0,35.87,116a.47.47,0,0,0,.16.62.48.48,0,0,0,.63-.16,15.46,15.46,0,0,1,3.09-3.27A4.57,4.57,0,0,1,43,112a.41.41,0,0,0,.43.37.47.47,0,0,0,.17,0c.23.34.46.67.67,1a32.75,32.75,0,0,1,3.39,6.51,3,3,0,0,1,.1.32,11.51,11.51,0,0,1-5.6,6.34,10.53,10.53,0,0,1-1.88.75c.14-.88.24-1.76.32-2.64a.46.46,0,1,0-.91,0,34,34,0,0,1-1.13,6.25.45.45,0,0,0,.87.24c.27-.94.49-1.89.67-2.85a12.46,12.46,0,0,0,7.48-5.59,11.05,11.05,0,0,0,.6-1.13,18.54,18.54,0,0,1,.58,5.1,44.24,44.24,0,0,0,0,6.2,10.23,10.23,0,0,0,.8,2.9,8.43,8.43,0,0,0-3.27-.31,4.1,4.1,0,0,0-2.9,1.66.46.46,0,0,0,.16.62.46.46,0,0,0,.62-.16,3.27,3.27,0,0,1,2.35-1.24,9.79,9.79,0,0,1,3.63.53h0a8.12,8.12,0,0,0,.92,1.13,42.06,42.06,0,0,0,4.08,3.18,6.38,6.38,0,0,1,2.79,4.35c.18,2.4-1,4.7-.71,7.1a5.18,5.18,0,0,0,.53,1.67A12,12,0,0,0,52.13,153a11.47,11.47,0,0,0-2.48.33c-.57.14-.33,1,.24.88a11,11,0,0,1,7.81,1,10.72,10.72,0,0,1,1.39.91c.4.45.82.88,1.24,1.3a11.45,11.45,0,0,1,3.08,5.61,11.21,11.21,0,0,1-.48,6.28A24.23,24.23,0,0,0,61.67,173a.43.43,0,0,0-.3.13,9.4,9.4,0,0,1-2.11,2,9.77,9.77,0,0,1-1.26.72c-.23.11-.76.41-1,.19-.43-.39-1.07.25-.64.64a1.51,1.51,0,0,0,1.61.18,9.81,9.81,0,0,0,1.51-.78,10.35,10.35,0,0,0,2.07-1.72,4.36,4.36,0,0,0,.33,1.64c1.67,4.12,6.91,4.05,9.58,7.08,1.19,1.35,1.75,4,0,5.14a.46.46,0,0,0-.16.58l-.13,0c-2.18-.25-4.32.41-6.49-.12a15.84,15.84,0,0,1-5.34-2.7A23.62,23.62,0,0,1,55,182.23c-1.55-1.8-1.22-4-1.45-6.19A11.41,11.41,0,0,0,52,171.59c-.85-1.52-1.88-3-2.63-4.52-.07-.15-.14-.29-.2-.44A15.54,15.54,0,0,0,57.58,165a14.39,14.39,0,0,0,2.18-1.35.47.47,0,0,0,.16-.62.45.45,0,0,0-.62-.16,14.45,14.45,0,0,1-10.5,2.8,10.53,10.53,0,0,1-.28-4.13c.18-1.82.47-3.71-.27-5.45s-2.35-3-3-4.82a16.76,16.76,0,0,1-.68-4.23,14.27,14.27,0,0,0,8-.85,6.54,6.54,0,0,1,.26,1.08.46.46,0,0,0,.56.32.48.48,0,0,0,.32-.56,7.59,7.59,0,0,0-.39-1.47.55.55,0,0,0-.06-.22l-.08-.09A7,7,0,0,0,51.62,143c-.42-.4-1.06.24-.64.65a6.36,6.36,0,0,1,1.24,1.68,13.37,13.37,0,0,1-7.73.74c0-.17,0-.34-.05-.51a13.35,13.35,0,0,0-1.59-4.79c-1.66-3-4.14-5.46-5.63-8.56-1.85-3.83-1.08-8.08-1.43-12.16a14.62,14.62,0,0,0-1.44-5.36,36.76,36.76,0,0,0-2.77-4.38,25.06,25.06,0,0,1-2.83-4.78,20.31,20.31,0,0,1-1.07-5.68,22.14,22.14,0,0,0-.42-2.81,8.2,8.2,0,0,0,6.37-2c.52-.47,1.18-1.1,1.1-1.87a.46.46,0,0,0-.45-.45.46.46,0,0,0-.46.45,1.11,1.11,0,0,1-.43.84q-.35.35-.72.66a7.74,7.74,0,0,1-1.67,1,7.12,7.12,0,0,1-3.87.47H27a9.57,9.57,0,0,0-.59-1.41c-.85-1.62-2.31-2.78-3.36-4.26-2.38-3.36-.26-7.62-1.68-11.29a25.61,25.61,0,0,0-3.07-5.05h0a8.49,8.49,0,0,1,6.78-2.28,8.15,8.15,0,0,1,2,.5.46.46,0,0,0,.56-.32.47.47,0,0,0-.31-.56,9.39,9.39,0,0,0-7.83.63,8.89,8.89,0,0,0-1.72,1.27,12.57,12.57,0,0,1-1.38-2.8c-.65-2-.19-4-.51-6a10.43,10.43,0,0,0-2.18-4.45,13.3,13.3,0,0,1-2.68-4.94,28.17,28.17,0,0,1-.34-5.88c0-.42,0-.84,0-1.26a10.58,10.58,0,0,0,8.08,2.75A9.6,9.6,0,0,0,21.59,50a.46.46,0,0,0,.32-.55.45.45,0,0,0-.56-.32,9.66,9.66,0,0,1-9.07-1,8.59,8.59,0,0,1-1.75-1.6,10.61,10.61,0,0,0-.78-2.8C9,42.07,7.77,40.67,7.06,39c-.82-2-.26-4.07-.64-6.11s-1.6-3.74-2-5.73c-.33-1.54-.11-3.47,1.38-4.33A.39.39,0,0,0,6,22.45h0a4.71,4.71,0,0,1,4.39,1c1.2.86,2.16,2.09,3.53,2.68a8.49,8.49,0,0,0,4.06.49c.7-.06,1.4-.2,2.11-.26a11.74,11.74,0,0,1,2.9-.06,7.61,7.61,0,0,1,2.26,1.13c.73.45,1.44.91,2.14,1.41A14.41,14.41,0,0,0,31.77,31a29.49,29.49,0,0,0,5.11.86l.68.07a33,33,0,0,0-.32,10.49.46.46,0,0,0,.45.45c.22,0,.49-.21.46-.45a32.32,32.32,0,0,1,.3-10.34.13.13,0,0,1,0-.06c1.25.12,2.5.22,3.76.33a21.72,21.72,0,0,1,5,.91,17.27,17.27,0,0,1,4.56,2.29A12.87,12.87,0,0,0,56,37.71l.27.06a.46.46,0,0,0,.17.58,3.59,3.59,0,0,1,1.49,2.95A8.44,8.44,0,0,1,57,45l-1.69-.92c-.51-.28-1,.5-.46.78l1.86,1a.42.42,0,0,0,.21.27.49.49,0,0,0,.36,0l1.27.7c.52.28,1-.51.46-.79l-1.22-.67a9.15,9.15,0,0,0,1-4.24,4.72,4.72,0,0,0-1.47-3.27,13.4,13.4,0,0,0,3.29-.4,21.87,21.87,0,0,1,5.64-.66,11.43,11.43,0,0,1,4.7,1.5c1.32.69,2.59,1.5,3.93,2.16a11.16,11.16,0,0,0,4.51,1.09c1.73.08,3.45-.15,5.17-.12a2.79,2.79,0,0,1,1.64.85c.33.25.39.55.64.84s.32.24.45.39.29.36.46.52c2.09,2,5.13,2.31,7.9,2.16,1.43-.08,2.86-.24,4.29-.25a11.51,11.51,0,0,1,4.52.9c1.07.44,2.11,1,3.15,1.46A8.27,8.27,0,0,1,105.34,54a4.35,4.35,0,0,1-5,.89,3.3,3.3,0,0,1-1.71-2.15.38.38,0,0,0-.31-.32c.5-.77,1-1.55,1.41-2.36.28-.51-.5-1-.78-.46A35.49,35.49,0,0,1,95.35,55a.47.47,0,0,0,0,.65.46.46,0,0,0,.64,0c.66-.81,1.28-1.64,1.86-2.5a4.52,4.52,0,0,0,4.62,3.06,6.45,6.45,0,0,0,5.16-3.9,11.17,11.17,0,0,0,.91-3.59l.46.2a11.54,11.54,0,0,0,4.72.91,47.68,47.68,0,0,0,5-.62,6.39,6.39,0,0,1,4.43,1.5,13.19,13.19,0,0,0,2.55,1.47.47.47,0,0,0,.46.45.62.62,0,0,1,.2.1.82.82,0,0,1,.23.29,2.75,2.75,0,0,1,.27.84,18.78,18.78,0,0,1,.31,2.69,8.41,8.41,0,0,1-1,4.7,5.21,5.21,0,0,1-1.45,1.58l-1.36-1.64a.45.45,0,0,0-.64.64l3.17,3.82a.46.46,0,0,0,.64-.65l-1.23-1.47a6.84,6.84,0,0,0,2.52-3.94,10.76,10.76,0,0,0,.27-3,18.4,18.4,0,0,0-.36-3,3.32,3.32,0,0,0-.25-.79,29.29,29.29,0,0,0,3.87.35,17,17,0,0,1,3.89.59c1.12.34,3,1.2,3.22,2.5C139.1,59.31,137.53,62.61,136,65.17Z"/><path class="cls-4" d="M87.87,111.67H87.8v0l.07,0Z"/><path class="cls-5" d="M188.48,42.79c-2.19-3-6.86-2.26-10.38-3.53-1.92-.69-3.54-2-5.44-2.74-4.31-1.61-9.33.21-13.62-1.43-1.8-.68-3.38-2-5.26-2.37-2.7-.59-5.62.68-8.25-.21-2.37-.79-3.87-3.14-6.05-4.38a7.31,7.31,0,0,0-7.45.2l1.74,2c-2.76-2.09-5.8-4.29-9.27-4.27a42.73,42.73,0,0,1-4.37.28c-2.87-.29-5.17-2.65-8-3.15h-2.91c-2.28.29-4.58.92-6.48-.23-1.66-1-2.61-3.18-4.52-3.51a10,10,0,0,0-2.6.19c-4,.34-7.35-3.4-11.33-3.34-1.39,0-2.79.52-4.15.24a10.81,10.81,0,0,1-3.23-1.71,12.21,12.21,0,0,0-7.76-1.71c-1.55.18-3.16.66-4.64.15-1.73-.6-2.82-2.41-4.53-3s-3.5,0-5.24-.3c-2.58-.39-4.55-2.56-7.07-3.25-3-.82-6.41.58-9.25-.71-1.3-.59-2.38-1.71-3.78-1.92s-2.9.51-4.16-.12c-.83-.41-1.3-1.3-1.9-2a5.89,5.89,0,0,0-8.79.31c-1,1.38-1.45,3.27-2.87,4.25a11.71,11.71,0,0,1-2.65,1A7.54,7.54,0,0,0,10,11.75a6.91,6.91,0,0,1-1.16,2.39c-1,1-2.53.9-3.87,1.17C2.63,15.78.51,17.79.51,20.17S3.2,24.69,5.36,23.7l.3.08c2.81,2,6,1.89,9.25,2.43l1.88.49a16.44,16.44,0,0,1,3,2.33,8.87,8.87,0,0,0,6.91,2.18,41,41,0,0,1,5.11-.59l4.57,1.2a6.42,6.42,0,0,1,1.42,1.39,6.41,6.41,0,0,0,2,2.37c.37.18.91.36,1.28.54,2.54.73,5.27.37,7.82,0,4.19-.72,7.28,1.82,10.56,4.19a9.2,9.2,0,0,0,2.36.91c3.1.36,6.19,0,9.28.18a8.24,8.24,0,0,1,4.37,2.19,2.28,2.28,0,0,0,.91.91c.18.18.18.36.37.54a6.16,6.16,0,0,0,4.36,1.27c2-.3,3.82-1.11,5.75-1.26l3.33.87A24.2,24.2,0,0,1,93.45,49c3.27,2.92,7.64,1.1,11.46,1.1a15.87,15.87,0,0,1,3.1.54c2.91,1.46,5.46,4.37,9.1,4a20.37,20.37,0,0,1,4.73-.37c1.63.37,2.73,1.64,3.82,2.73,3.17,2.54,6.75.38,10.15-.22l2.87.55,0-.38c0,3.15-3.6,3.7-5.59,5.33-1.64,1.64-2.18,3.82-3.09,5.82-1.1,2.19-3.46,3.28-5.46,4.37a13.81,13.81,0,0,0-4,3.28c-1.45,2.18-2.73,4.36-4.18,6.37a25.88,25.88,0,0,0-7.83,5.27c-1.82,2.19-2.91,4.92-4.37,7.46-1.27,2-3.45,3.1-5.45,4.37A9.69,9.69,0,0,0,96,103.09,8.66,8.66,0,0,1,94.54,106l-.91.91c-2.18,1.28-5.28,1.82-5.76,4.56h0l0,.19h0l-.06.22v-.19c-1.28.51-1.83,2.39-1.48,3.85.41,1.67,1.52,3.12,1.83,4.82.18.91.11,1.85.2,2.78a16.42,16.42,0,0,0,1.24,4.25l4,10.21c.71,1.81,1.72,3.87,3.63,4.22s3.78-1.44,4.55-3.32.94-4,2-5.77c2.12-3.7,7.09-4.71,9.9-7.91,1.77-2,2.55-4.76,4.38-6.72,2.7-2.91,7.31-3.72,9.45-7.06,1.08-1.68,1.36-3.8,2.55-5.4,1.9-2.56,5.52-3.13,7.85-5.31s3-5.66,5.35-7.86c1.57-1.5,3.73-2.25,5.36-3.68,3-2.66,3.76-7.19,6.67-10,2.5-2.41,6.46-3.36,8-6.47.84-1.67.81-3.68,1.67-5.34,1.57-3,5.42-3.88,8-6.08,2.84-2.42,4.1-6.41,7.2-8.48,2.21-1.46,5.06-1.72,7.26-3.2S190.64,44.11,188.48,42.79Z"/><path class="cls-6" d="M138.74,56.93h0Z"/><path class="cls-7" d="M190.31,45.43A3,3,0,0,0,189,43.09c-2.15-2.82-6.09-2.54-9.22-3.26a10.94,10.94,0,0,1-2.67-1c-.94-.49-1.84-1.07-2.79-1.56a11.14,11.14,0,0,0-3.06-1.07A17.68,17.68,0,0,0,168,36a46.39,46.39,0,0,1-6.46-.12,10.38,10.38,0,0,1-3-.92c-1-.46-1.86-1-2.84-1.46a8,8,0,0,0-3.09-.73,28.12,28.12,0,0,0-3.3.21,9.06,9.06,0,0,1-3.2-.16,6.57,6.57,0,0,1-2.37-1.31c-1.49-1.2-2.78-2.7-4.57-3.47a7.82,7.82,0,0,0-7.19.55.42.42,0,0,0-.2.27,15,15,0,0,0-5-2.35,12.63,12.63,0,0,0-4.25,0,8,8,0,0,1-4.44-.58,51.72,51.72,0,0,0-4.73-2.21.47.47,0,0,0-.31-.32.44.44,0,0,0-.43.12,7.24,7.24,0,0,0-1.56-.18c-2.62,0-5.82,1.46-8.18-.25-.94-.67-1.59-1.66-2.48-2.41a4,4,0,0,0-3.27-1,8.87,8.87,0,0,1-4-.17c-.21-.06-.42-.14-.63-.21a.39.39,0,0,0-.26-.1c-.88-.35-1.73-.78-2.58-1.19a16.06,16.06,0,0,0-3.56-1.33,13,13,0,0,0-4.08.12,4.76,4.76,0,0,1-2.19-.21,11.06,11.06,0,0,1-2-1.19,13.11,13.11,0,0,0-3.87-1.74,12.77,12.77,0,0,0-4.13-.37c-1.59.13-3.28.74-4.85.25-1.22-.38-2.1-1.42-3.09-2.18l-.31-.22-.1-.07a5.59,5.59,0,0,0-3.13-.93c-1.56,0-3,.23-4.53-.33a28.64,28.64,0,0,1-3.61-2,9.14,9.14,0,0,0-3.62-1.18,37.84,37.84,0,0,0-4.39.09,7.48,7.48,0,0,1-4.22-1A7.78,7.78,0,0,0,34.61,4.2c-1.45-.12-3.14.7-4.32-.48a15.43,15.43,0,0,0-2.4-2.51A6.56,6.56,0,0,0,22,.78a5.58,5.58,0,0,0-2.39,1.85c-.73,1-1.13,2.18-1.84,3.18-.9,1.28-2.29,1.45-3.65,2a7.91,7.91,0,0,0-3,2.19,10.51,10.51,0,0,0-1.71,3.22,2.7,2.7,0,0,1-1.29,1.63A6.57,6.57,0,0,1,6,15.33,6.52,6.52,0,0,0,.59,19.06a4.36,4.36,0,0,0,2.15,5.56,3.58,3.58,0,0,0,2.9.16,9.81,9.81,0,0,0,3.23,1.53,24.17,24.17,0,0,0,3.58.63,20.53,20.53,0,0,1,3.91.6,9.44,9.44,0,0,1,2.95,2.16,11.22,11.22,0,0,0,3,2,8.76,8.76,0,0,0,3.39.71A20.76,20.76,0,0,0,28.87,32c2-.29,4.27-.56,6.25.21a5.37,5.37,0,0,1,2.6,2.15,5.8,5.8,0,0,0,2.17,2.33c2.41,1.16,5.12,1,7.71.73a15.5,15.5,0,0,1,3.84-.27,9.87,9.87,0,0,1,3.46,1.18c2.14,1.15,3.91,3,6.24,3.78a14,14,0,0,0,4.28.37c1.19,0,2.39,0,3.58,0a.47.47,0,0,0,.33,0h.6a7.12,7.12,0,0,1,3.9,1,6.21,6.21,0,0,1,1.63,1.34,3.63,3.63,0,0,0,.48.48,6.37,6.37,0,0,1,.6.67,5.9,5.9,0,0,0,3.13,1.4,8.92,8.92,0,0,0,3.76-.42,16.26,16.26,0,0,1,4.14-.82,5,5,0,0,1,3.21,1.34c.87.74,1.59,1.61,2.4,2.41A6.58,6.58,0,0,0,96,51.47c2.19.61,4.5.17,6.71-.09a15.2,15.2,0,0,1,3.63,0,5.45,5.45,0,0,1,2,.5,17.16,17.16,0,0,1,1.48.9c1.8,1.19,3.6,2.57,5.79,2.93,2.49.4,5.32-1.19,7.62.21a28.08,28.08,0,0,1,2.52,2.23,5.85,5.85,0,0,0,3,1.17c2.24.2,4.39-.74,6.53-1.25a11.14,11.14,0,0,1,1.73-.28,5.94,5.94,0,0,1,1.4.14V58h0a2.8,2.8,0,0,1-.83,1.7,8.2,8.2,0,0,1-2.05,1.38,17.57,17.57,0,0,0-2.22,1.29,7.46,7.46,0,0,0-2.1,2.88c-.52,1.09-.87,2.25-1.41,3.32A6.5,6.5,0,0,1,127.63,71a28.07,28.07,0,0,1-2.9,1.69,13.23,13.23,0,0,0-5.87,5.87c-.84,1.32-1.68,2.65-2.6,3.92a27.56,27.56,0,0,0-7.39,4.85,16.28,16.28,0,0,0-2.64,3.77c-.64,1.17-1.22,2.36-1.85,3.52a.4.4,0,0,0-.11.19l0,0c-.06.1-.11.21-.17.32a8.87,8.87,0,0,1-3,2.85,15.56,15.56,0,0,0-3.47,2.46,10.52,10.52,0,0,0-1.2,1.76l-.5,1a10.84,10.84,0,0,0-.44,1.12,7.89,7.89,0,0,1-1,1.82,6,6,0,0,1-.77.82,2.24,2.24,0,0,1-.61.45c-2.13,1.12-5.05,1.86-5.56,4.6v0a3.11,3.11,0,0,0-1.43,1.79,5.34,5.34,0,0,0,.37,3.9c.33.76.72,1.49,1,2.26a7.94,7.94,0,0,1,.45,2.6,15.29,15.29,0,0,0,1.15,5.15q2.11,5.4,4.27,10.77a9.07,9.07,0,0,0,2.06,3.44,3.58,3.58,0,0,0,3.63.84c3.19-1.13,3.62-4.76,4.52-7.53a8.1,8.1,0,0,1,2.32-3.59,20.52,20.52,0,0,1,3.34-2.28,32.14,32.14,0,0,0,3.41-2.22A11.63,11.63,0,0,0,115.5,124c.82-1.36,1.48-2.82,2.41-4.11a10.94,10.94,0,0,1,3.25-2.8c2.28-1.39,4.91-2.45,6.58-4.63a18.56,18.56,0,0,0,2-4.23,7.12,7.12,0,0,1,2.82-3.36c1.19-.76,2.49-1.31,3.72-2a9.9,9.9,0,0,0,3.15-2.64c1.84-2.41,2.63-5.56,5.16-7.42,1.31-1,2.8-1.62,4.08-2.62A11,11,0,0,0,151.36,87c1.49-2.46,2.43-5.35,4.59-7.33s4.72-2.73,6.66-4.67a7.62,7.62,0,0,0,2-3.78c.38-1.53.62-3.11,1.68-4.35,1.79-2.09,4.61-2.92,6.75-4.57,2.33-1.78,3.58-4.45,5.39-6.69a9.66,9.66,0,0,1,3.35-2.74c1.46-.69,3-1.07,4.51-1.7a6.76,6.76,0,0,0,3.11-2.41A5.33,5.33,0,0,0,190.31,45.43ZM88.88,121.54a8,8,0,0,0-.6-2.25c-.57-1.35-1.5-2.73-1.41-4.25a2.87,2.87,0,0,1,1-2.11h0l.12,0a.46.46,0,0,0,.23-.06l.09-.07a.39.39,0,0,0,.1-.16.69.69,0,0,1,.2,0c.57,0,.58-.94,0-.91.61-1.76,2.61-2.45,4.2-3.18a5.2,5.2,0,0,0,1.37-.75c.24-.22.46-.45.68-.68a6.32,6.32,0,0,0,.66,4.77.42.42,0,0,0,.44.21,11.87,11.87,0,0,1-1.75,1.25.46.46,0,0,0,.46.79,12.38,12.38,0,0,0,4.07-3.85.46.46,0,0,0-.79-.46,11.13,11.13,0,0,1-1.59,1.9.38.38,0,0,0-.06-.3,5.4,5.4,0,0,1-.67-3.53.51.51,0,0,0,.09-.18l.33-1.24a3.78,3.78,0,0,1,.25-.49.41.41,0,0,0,0-.45l.4-1.53a.41.41,0,0,0,0-.27c.17-.37.34-.72.54-1.08A9.46,9.46,0,0,1,98.35,101a6.12,6.12,0,0,1,1.5-1.17,25.83,25.83,0,0,0,3.27-2.23c.22-.19.43-.39.64-.6a12.43,12.43,0,0,0,.68,6,.47.47,0,0,0,.56.32.46.46,0,0,0,.32-.56,11.73,11.73,0,0,1-.24-7.56c.15-.26.29-.53.43-.8.66-1.27,1.29-2.56,2-3.8a19.27,19.27,0,0,1,1.2-1.79,10,10,0,0,1,1.38-1.46A19.79,19.79,0,0,1,113.46,85c.58-.34,1.17-.67,1.76-1l.91-.46.26-.14a.41.41,0,0,0,.4.27h0A4.67,4.67,0,0,1,119.62,89a.46.46,0,0,0,.88.24,5.61,5.61,0,0,0-3.38-6.47c.89-1.24,1.71-2.53,2.52-3.82.44-.69.88-1.37,1.33-2a7.72,7.72,0,0,1,1.37-1.54,17.89,17.89,0,0,1,3.3-2.2,20.09,20.09,0,0,0,2.93-1.81l0,0a7.83,7.83,0,0,1,2.1,4.13.46.46,0,0,0,.56.32.47.47,0,0,0,.32-.56,8.77,8.77,0,0,0-2.31-4.51A7.29,7.29,0,0,0,130,70a7.57,7.57,0,0,0,.92-1.7,26.76,26.76,0,0,1,1.59-3.54,5.38,5.38,0,0,1,1.2-1.52,8.15,8.15,0,0,1,1.08-.68c.63-.36,1.33-.7,2-1.08a4.22,4.22,0,0,1,2.9,3.92.42.42,0,0,0,.26.4l-.19.1a.56.56,0,0,0-.45-.09.63.63,0,0,0-.43.44.57.57,0,0,0,.39.67.9.9,0,0,0,.68-.1c.78-.37,1.54-.78,2.31-1.17a.45.45,0,0,0,.16-.62.47.47,0,0,0-.62-.17l-1.21.62a.22.22,0,0,0,0-.08,5.17,5.17,0,0,0-2.9-4.54A4.25,4.25,0,0,0,139.11,59a3.83,3.83,0,0,0,.24-1.22.47.47,0,0,0,.05-.1v-.13a.4.4,0,0,0,0-.15v0c.15-1.22.59-2.59,1.94-2.79a.46.46,0,0,0,.32-.56.48.48,0,0,0-.56-.32,2.93,2.93,0,0,0-2,1.47,4.69,4.69,0,0,0-.57,1.74h-.12l-.07,0a4.72,4.72,0,0,0-.84-.12,8.42,8.42,0,0,0-1.66.17c-1.14.21-2.24.57-3.36.87-2.23.61-4.77,1-6.57-.82A11.17,11.17,0,0,0,123.39,55a4.42,4.42,0,0,0-1.41-.47.41.41,0,0,0,.28-.21,11.27,11.27,0,0,0,1.08-7.77,10.78,10.78,0,0,0-.72-2.14.47.47,0,0,0-.63-.17.48.48,0,0,0-.16.63,10.25,10.25,0,0,1-.36,9,.42.42,0,0,0,0,.42.41.41,0,0,0-.33.18,12.55,12.55,0,0,0-1.36.08,16.52,16.52,0,0,1-3.84.32,8.34,8.34,0,0,1-3.15-1.2c-1.89-1.1-3.6-2.78-5.83-3.1a14.32,14.32,0,0,0-3.64-.13c-1.12.11-2.23.29-3.35.38a10.63,10.63,0,0,1-3.44-.17h0a10.39,10.39,0,0,0,4.07-8.36,9.67,9.67,0,0,0-.41-2.68c-.17-.56-1-.32-.88.24a9.48,9.48,0,0,1-1.53,8.3,9,9,0,0,1-1.71,1.72.47.47,0,0,0-.17.6,6,6,0,0,1-2.37-1.51c-1.45-1.51-3-3.32-5.14-3.68-2.71-.45-5.18,1.31-7.83,1.28a4.68,4.68,0,0,1-3.51-1.45,1.71,1.71,0,0,0-.48-.45,4.47,4.47,0,0,1-.64-.74,7.38,7.38,0,0,0-1.55-1.16,7.27,7.27,0,0,0-3.27-1.16c-.52,0-1.05-.06-1.58-.06a5.77,5.77,0,0,1,1-4.46,9.26,9.26,0,0,1,1.59,1.6.46.46,0,0,0,.65,0,.47.47,0,0,0,0-.64,9.7,9.7,0,0,0-3.78-2.93.46.46,0,0,0-.62.16.45.45,0,0,0,.16.62,8.49,8.49,0,0,1,1.26.68,6.69,6.69,0,0,0-1.23,5l-2,0a27.76,27.76,0,0,1-4.37-.13,8.16,8.16,0,0,1-3.65-1.78,17.48,17.48,0,0,0-6.11-3.24,10.39,10.39,0,0,0-3.29-.13.45.45,0,0,0-.12-.29,14.76,14.76,0,0,1,1.23-7.3.47.47,0,0,0-.17-.62.45.45,0,0,0-.62.16,15.68,15.68,0,0,0-1.31,8.16c-1.1.14-2.2.31-3.31.34a10.1,10.1,0,0,1-4.08-.64c-1.27-.52-1.75-1.44-2.5-2.51A6.51,6.51,0,0,0,34.42,31a3,3,0,0,0,.76-.89,5.57,5.57,0,0,0,.15-3.63.46.46,0,0,0-.56-.32.48.48,0,0,0-.32.56,4.89,4.89,0,0,1,0,2.81,1.57,1.57,0,0,1-1.64,1,.43.43,0,0,0-.49.19,31.91,31.91,0,0,0-5.24.55,8.64,8.64,0,0,1-7-2.15,25.77,25.77,0,0,0-2.27-1.91A4.53,4.53,0,0,1,21,22.7a.46.46,0,0,0-.24-.88,5.48,5.48,0,0,0-3.83,5A12.26,12.26,0,0,0,14,26.21c-2.51-.32-5.12-.47-7.34-1.81a6.73,6.73,0,0,1-2.46-2.67c-.26-.53-1-.07-.78.45a7.08,7.08,0,0,0,1.38,1.89,3.39,3.39,0,0,1-3.58-4,4.73,4.73,0,0,1,2.06-2.9,8.37,8.37,0,0,1,3.56-1.06,4,4,0,0,0,2.82-1.45c.74-1.06.91-2.4,1.65-3.48a7,7,0,0,1,2.17-2h.3c1.63.23,2.25,2,3,3.28a5.06,5.06,0,0,0,3.76,2.84c2,.27,4-.38,5.94.07C28,15.72,29,16.94,30,18.13a11.81,11.81,0,0,0-2.51,7.41,12.22,12.22,0,0,0,.25,2.26c.12.57,1,.33.88-.24a10.75,10.75,0,0,1,2-8.72l.34.38c2.42,2.5,5.8,2.37,9,2l-.09.13a7.25,7.25,0,0,0-.76,2,14.33,14.33,0,0,0-.41,4.66A14.74,14.74,0,0,0,39,30.24c-.26-.07-.53-.15-.79-.24-.56-.18-.8.7-.24.88a19.89,19.89,0,0,0,4.26.87.46.46,0,1,0,0-.91A18.79,18.79,0,0,1,40,30.49a13.6,13.6,0,0,1-.46-4.16,12.34,12.34,0,0,1,.84-4,2.18,2.18,0,0,1,.41-.69.66.66,0,0,1,.59-.26.43.43,0,0,0,.43-.32,16.06,16.06,0,0,1,5.27.06,9.34,9.34,0,0,1,4.64,3,49.61,49.61,0,0,0,3.78,4l.14.12a.6.6,0,0,0,.07.2,6.45,6.45,0,0,1-.51,7.09.48.48,0,0,0,0,.64.46.46,0,0,0,.65,0,7.4,7.4,0,0,0,1.19-7,8.73,8.73,0,0,0,3.86,1.06A17.58,17.58,0,0,0,63,30.14a9.5,9.5,0,0,0-2.28,5.71c0,.59.88.58.91,0A8.57,8.57,0,0,1,64.5,30c1.16-.16,2.31-.35,3.47-.42a14.68,14.68,0,0,1,6.28,1.1c.93.36,1.83.78,2.72,1.21a8.23,8.23,0,0,1,.67,7.67.47.47,0,0,0,.16.62.46.46,0,0,0,.62-.17,9.15,9.15,0,0,0,0-7.41,30.73,30.73,0,0,0,7.4,3,20.46,20.46,0,0,0,6.85,0,12.26,12.26,0,0,0-4.57,7c-.14.57.74.82.87.25a11.63,11.63,0,0,1,3.48-5.89A11.88,11.88,0,0,1,94,35.68a.43.43,0,0,0,.21-.37,22.89,22.89,0,0,1,5.1-.19,8.69,8.69,0,0,1,3.27,1,22.31,22.31,0,0,1,2.76,2,9.43,9.43,0,0,0,5,2,14.32,14.32,0,0,0,2.7,0,12.07,12.07,0,0,0-3,6,11.68,11.68,0,0,0-.2,2.29l-1.29-.21a.48.48,0,0,0-.56.32.45.45,0,0,0,.32.56l3.69.58a.47.47,0,0,0,.56-.31.45.45,0,0,0-.32-.56l-1.5-.24s0-.06,0-.1a11.09,11.09,0,0,1,3.83-8.55c2.17-.36,4.32-.95,6.49-1.19a9.59,9.59,0,0,1,5,.51,17.23,17.23,0,0,1,3.35,2.59.53.53,0,0,0,.05.35,11.88,11.88,0,0,1,.16,9.25,11,11,0,0,1-1.31,2.35.47.47,0,0,0,.17.63.47.47,0,0,0,.62-.17,12.72,12.72,0,0,0,2-9.77,11.78,11.78,0,0,0-.53-1.87l.37.16c2.09.78,4.4.35,6.55.16a20.69,20.69,0,0,1,2.08-.1.39.39,0,0,0,.35,0,23.05,23.05,0,0,1,5.23.66c.43.11.86.23,1.29.37-1,1.24-2,2.48-3.06,3.71a9.52,9.52,0,0,1-3.53,3,4.67,4.67,0,0,1-1.84.35,7.67,7.67,0,0,0,.12-2.19.46.46,0,1,0-.91,0,6.79,6.79,0,0,1-.14,2.16.42.42,0,0,0-.22.27.47.47,0,0,0,.05.35,7.32,7.32,0,0,1-1.09,2.09.46.46,0,0,0,.16.62.47.47,0,0,0,.62-.16,7.43,7.43,0,0,0,1.17-2.25,6,6,0,0,0,4.07-1.37,23.2,23.2,0,0,0,3.53-3.81l2-2.42a9.16,9.16,0,0,1,3.41,2.15,4.82,4.82,0,0,1,1,1.49.41.41,0,0,0,.11.45l.06,0a7.46,7.46,0,0,1-.24,4.11,28.22,28.22,0,0,0-1.31,5A3.8,3.8,0,0,0,146,58.73a.46.46,0,0,0,.16.62.47.47,0,0,0,.62-.16,2.87,2.87,0,0,1,3.52-.9c0,.17,0,.34,0,.52.19,2.39.9,4.65-.12,7a12.45,12.45,0,0,1-5.37,5.47.51.51,0,0,0-.32.19c-1.49.88-3.08,1.65-4.53,2.45a22.73,22.73,0,0,0-4.29,3,5.93,5.93,0,0,0-.66-4.36.46.46,0,0,0-.79.46,5,5,0,0,1-.11,5.27.41.41,0,0,0-.07.31,33.76,33.76,0,0,0-3,4.15c-1,1.54-1.88,3.11-2.86,4.63,0,0,0,0,0,0a.47.47,0,0,0-.62.17,1.49,1.49,0,0,1-1.33.44,2.35,2.35,0,0,1-1.44-.8,6.1,6.1,0,0,1-1-1.71,8.54,8.54,0,0,1-.59-1.92,2.21,2.21,0,0,1,.38-1.83.47.47,0,0,0,0-.64.45.45,0,0,0-.64,0c-1.13,1.28-.65,3.08-.08,4.5s1.52,3.09,3.28,3.3a2.65,2.65,0,0,0,1.16-.13,25.17,25.17,0,0,1-3.57,4.22c-2.68,2.48-5.84,4.37-8.63,6.71h0a5.78,5.78,0,0,1-1.08-6.7,9,9,0,0,1,1.77.36.46.46,0,0,0,.25-.88A10.83,10.83,0,0,0,114,92a.44.44,0,0,0-.3,0,10.18,10.18,0,0,0-1.83,0,.46.46,0,0,0,0,.91,8.38,8.38,0,0,1,1.22-.06,6.84,6.84,0,0,0,.26,5.86,6.16,6.16,0,0,0,1.13,1.5l-.37.33a17.55,17.55,0,0,0-3.71,4.69c-1.12,2.13-1.81,4.47-3.25,6.41a16.15,16.15,0,0,1-1.83,2,13.62,13.62,0,0,0-3.38-7.62c-.39-.44-1,.21-.64.64a12.67,12.67,0,0,1,3.17,7.76c-.79.7-1.62,1.35-2.43,2l-5.18,4.14a.41.41,0,0,0-.32,0c-1.15.57-2.51-.35-3.28-1.15a6.16,6.16,0,0,1-1.62-3.21,5.49,5.49,0,0,1,0-2,.47.47,0,0,0-.32-.56.46.46,0,0,0-.56.31,6.91,6.91,0,0,0,.57,4.27,6.26,6.26,0,0,0,3,3,3.93,3.93,0,0,0,1.15.31l-5.88,4.69a13.2,13.2,0,0,1-.57-2.16C88.91,123.32,89,122.42,88.88,121.54Zm98.88-72.32a12.33,12.33,0,0,1-4.09,1.9,13.72,13.72,0,0,0-4,1.91l-.36.29h-.06c-2.81.52-6.06.47-8.28-1.58a4.85,4.85,0,0,1-1.64-3.34,3.66,3.66,0,0,1,1.35-3.2,3.19,3.19,0,0,1,3.46-.3.42.42,0,0,0,.39,0,7.32,7.32,0,0,1-.56,2.29.46.46,0,0,0,.32.56.47.47,0,0,0,.56-.31,8,8,0,0,0,.28-5.36.45.45,0,0,0-.87.24,7.35,7.35,0,0,1,.28,1.73,4,4,0,0,0-3.84,0,4.38,4.38,0,0,0-2.25,3.44,5.63,5.63,0,0,0,1.33,4.25,7.59,7.59,0,0,0,3.71,2.32,11.73,11.73,0,0,0,4.72.27c-1.4,1.56-2.42,3.45-3.72,5.1-.22.28-.45.54-.68.8a10.45,10.45,0,0,0-6.63-7.13,11.16,11.16,0,0,0-2.66-.67,5.82,5.82,0,0,0-3.25.39,3.49,3.49,0,0,0-1.81,2,3,3,0,0,0,.44,2.6c1.23,1.81,3.54,2.62,5.64,2.91a7.36,7.36,0,0,1-1.52,2c-.43.4.21,1,.64.64a8.19,8.19,0,0,0,2.6-5.45.46.46,0,0,0-.46-.46.46.46,0,0,0-.45.46,7.3,7.3,0,0,1-.42,2,11.06,11.06,0,0,1-2.9-.75,5.77,5.77,0,0,1-2-1.36,2.17,2.17,0,0,1,.55-3.66,4.64,4.64,0,0,1,2.75-.38,10.3,10.3,0,0,1,2.38.56,10.68,10.68,0,0,1,3.94,2.5A8.4,8.4,0,0,1,173,61l0,.07a11.61,11.61,0,0,1-1.53,1.16c-1.14.72-2.35,1.31-3.49,2a9.34,9.34,0,0,0-2.8,2.47,11.45,11.45,0,0,0-1.5,4.23,6.9,6.9,0,0,1-2.06,3.66A16,16,0,0,1,159,76.42c-.28-2.51-2.37-4.22-4.35-5.59a7,7,0,0,0,.54-1.85.46.46,0,0,0-.88-.24,6.45,6.45,0,0,1-.55,1.83.5.5,0,0,0-.18.35,6.5,6.5,0,0,1-1.54,1.85.45.45,0,1,0,.64.64,7,7,0,0,0,1.54-1.77c1.75,1.2,3.74,2.76,3.9,5a.44.44,0,0,0,.08.25,17.15,17.15,0,0,0-3,2.17,13.18,13.18,0,0,0-2.39,3.25c-1.36,2.42-2.36,5.19-4.58,7-1.2,1-2.64,1.61-3.91,2.5A10.46,10.46,0,0,0,141.41,95c-.4.66-.76,1.34-1.13,2a11.47,11.47,0,0,1-3.57-5.11.47.47,0,0,0-.56-.32.45.45,0,0,0-.32.56,12.47,12.47,0,0,0,4,5.68c-.17.3-.35.6-.53.89a9.19,9.19,0,0,1-2.95,3c-2.25,1.38-5,2.18-6.56,4.41a23.05,23.05,0,0,0-1.92,4.23,7.88,7.88,0,0,1-2.53,3.13c-2.11,1.58-4.65,2.49-6.67,4.21l-.38.35a11.69,11.69,0,0,1-1.67-6.55c0-.59-.88-.58-.91,0a12.49,12.49,0,0,0,1.91,7.19l0,0c-1.61,1.94-2.42,4.42-4.08,6.34s-4.2,3.09-6.37,4.51a12.35,12.35,0,0,0-2.84,2.4,7.07,7.07,0,0,0-.72,1,47,47,0,0,0-.72-8.29.46.46,0,1,0-.88.24,46.18,46.18,0,0,1,.65,10.1.48.48,0,0,0,0,.12c-.07.24-.15.49-.22.74a13.2,13.2,0,0,1-1.62,4.32c-.79,1.13-2.13,2.12-3.57,1.72s-2-1.64-2.59-2.77c-.73-1.54-1.29-3.17-1.92-4.76-.69-1.76-1.39-3.53-2.09-5.29-.22-.55-.45-1.11-.67-1.67l.51-.61a.29.29,0,0,0,.09-.15h0l4.69-3.75c.43,1.25.83,2.5,1.2,3.76q.31,1.08.6,2.16a19.32,19.32,0,0,1,.46,2,2.89,2.89,0,0,1-.25,1.92l0,.09a11.5,11.5,0,0,1-.83-1.34.45.45,0,0,0-.78.46A11.52,11.52,0,0,0,98,135a.47.47,0,0,0,.65,0,.46.46,0,0,0,0-.64c-.22-.21-.43-.43-.63-.65s-.15-.17-.22-.25a.39.39,0,0,0,.36-.22c.72-1.24.36-2.71,0-4-.38-1.49-.8-3-1.26-4.45q-.39-1.22-.81-2.43L101,118.4a2,2,0,0,0,0,.43,4.27,4.27,0,0,0,.65,2,16.17,16.17,0,0,0,1,1.68,17.43,17.43,0,0,0,3,3.34.47.47,0,0,0,.64,0,.46.46,0,0,0,0-.64,16.89,16.89,0,0,1-2.44-2.56,16,16,0,0,1-1-1.47,8.82,8.82,0,0,1-.83-1.58,1.84,1.84,0,0,1,0-1.42,2,2,0,0,1,.74-.85,2.53,2.53,0,0,1,2.47-.19,4.81,4.81,0,0,1,2.23,2.47.46.46,0,0,0,.79-.46,5.78,5.78,0,0,0-2.27-2.64,3.6,3.6,0,0,0-2-.5,22.55,22.55,0,0,0,4-4l.17-.24a18,18,0,0,0,1.78,7.69,16.57,16.57,0,0,0,1.32,2.27.46.46,0,0,0,.62.17.47.47,0,0,0,.16-.63,16.93,16.93,0,0,1-2.93-8.35,18.09,18.09,0,0,1,0-2.55.29.29,0,0,0,0-.16c.79-1.54,1.38-3.18,2.2-4.71a15.44,15.44,0,0,1,2.23-3.11.42.42,0,0,0,.25-.07,3.31,3.31,0,0,1,3.79.6,11.18,11.18,0,0,1,2.63,3.8,15.59,15.59,0,0,1,.91,2.56.46.46,0,0,0,.88-.24,16.56,16.56,0,0,0-2.19-4.89,6.43,6.43,0,0,0-3.81-3,3.89,3.89,0,0,0-1.13-.07,60.88,60.88,0,0,1,5.4-4.23c.62-.45,1.24-.91,1.85-1.38,2.41,2,4.84,4.81,4.12,8.16a4.53,4.53,0,0,1-.9,1.95l-1.19-1.24a.45.45,0,0,0-.64.64l2.91,3a.45.45,0,0,0,.64-.64l-1.09-1.14a6,6,0,0,0,1.26-4.48A8.93,8.93,0,0,0,124.9,97a16.42,16.42,0,0,0-2.13-2c.76-.61,1.49-1.25,2.19-1.93a24.14,24.14,0,0,0,2.7-3.18,10.52,10.52,0,0,0-.17,4.64,7.64,7.64,0,0,0,1.64,3.44.45.45,0,0,0,.64,0,.46.46,0,0,0,0-.64,7.77,7.77,0,0,1-1.48-6A14.48,14.48,0,0,1,131,85c.8-1.14,1.67-2.22,2.55-3.29a.76.76,0,0,0,.11-.22,5.27,5.27,0,0,1,3.27.68,8.16,8.16,0,0,1,2.77,2.71,17.48,17.48,0,0,1,1.11,2,.46.46,0,0,0,.62.16.47.47,0,0,0,.17-.62c-1.21-2.6-3.14-5.18-6.11-5.8a5.61,5.61,0,0,0-1.87-.08,21.73,21.73,0,0,1,2.53-2.9c2.38-2.24,5.39-3.5,8.21-5.08A8.73,8.73,0,0,0,147,79.32,8,8,0,0,0,149,80.69c.52.26,1-.52.46-.79a7.73,7.73,0,0,1-4.11-6,7.18,7.18,0,0,1,0-1.91,20.63,20.63,0,0,0,2.33-1.62,11.42,11.42,0,0,0,3.6-4.76,7.8,7.8,0,0,0,.41-3.25.52.52,0,0,0,.2-.17,2.92,2.92,0,0,1,2.83-1,5.42,5.42,0,0,1,3.21,2A20.77,20.77,0,0,1,159.38,65a.47.47,0,0,0,.62.16.45.45,0,0,0,.16-.62,12.55,12.55,0,0,0-3.28-3.53,4.81,4.81,0,0,0-4-.61,3.41,3.41,0,0,0-1.34.78c-.09-.79-.22-1.59-.28-2.41,0-.15,0-.31,0-.46l0,0a.44.44,0,0,0,0-.48c.18-3,2.07-6.06,1.76-9a7.11,7.11,0,0,0,5.87.19,6.74,6.74,0,0,0,4-5.63,6.84,6.84,0,0,0-.79-3.92c-.29-.51-1.07,0-.79.46a6.14,6.14,0,0,1-.14,5.95,5.79,5.79,0,0,1-5.33,2.77,5.88,5.88,0,0,1-3.07-1,1.8,1.8,0,0,0-.08-.21.37.37,0,0,0-.1-.23,5.39,5.39,0,0,0-.58-1,9.67,9.67,0,0,0-4.68-3.17,22.23,22.23,0,0,0-6.26-1.24A6.83,6.83,0,0,0,143,38.55a5.53,5.53,0,0,0-.94-4.67,4.85,4.85,0,0,0-2.19-1.65.46.46,0,0,0-.24.88,4.24,4.24,0,0,1,2.49,2.94,5.08,5.08,0,0,1-.82,4.08,6.28,6.28,0,0,1-1.63,1.66c-2.26,0-4.51.54-6.77.34a5.67,5.67,0,0,1-1.44-.3l.06,0a.45.45,0,0,0,.16-.62l-.1-.18a.93.93,0,0,0-.05-.1v0a2.77,2.77,0,0,1-.12-.41.43.43,0,0,1,0-.11v0c0-.07,0-.13,0-.2a1.48,1.48,0,0,1,0-.21v-.17a2.62,2.62,0,0,1,.09-.38l.06-.19v0l0-.08a1.76,1.76,0,0,1,.48-.63.46.46,0,0,0-.65-.64,3.14,3.14,0,0,0-.56,3.8,5.54,5.54,0,0,1-1.25-.83,19,19,0,0,0-2.31-2c-2.27-1.45-5-1.34-7.58-.91a8.33,8.33,0,0,0,.41-7.79,7.65,7.65,0,0,0-1.34-2c-.4-.43-1,.22-.64.65a7.37,7.37,0,0,1,1.51,7.09,6.74,6.74,0,0,1-.94,1.9.37.37,0,0,0,0,.32l-1.41.29c-3.58.72-7.52,1.64-10.78-.56a27.32,27.32,0,0,0-4.56-3,.44.44,0,0,0,0-.35,5.87,5.87,0,0,1,.17-6.35.45.45,0,1,0-.78-.46,6.81,6.81,0,0,0-.44,6.8h0a18.8,18.8,0,0,0-6.69,0,29.62,29.62,0,0,1-7,.39,20.48,20.48,0,0,1-6.18-2c-1.27-.61-2.53-1.27-3.82-1.89a.22.22,0,0,0,0-.08,9.28,9.28,0,0,1,.12-6.76.46.46,0,0,0-.32-.56.47.47,0,0,0-.56.32,10,10,0,0,0-.34,6.55,18.07,18.07,0,0,0-6.75-1.81,16.89,16.89,0,0,0-2.36.12,5.06,5.06,0,0,0,1.62-1.93,7.56,7.56,0,0,0,.49-4.6,26.09,26.09,0,0,0-.71-2.9.46.46,0,0,0-.88.25c.73,2.54,1.61,5.78-.47,8a3.26,3.26,0,0,1-1.61.94.41.41,0,0,0-.3.54l-.69.1a.45.45,0,0,0-.23,0c-.7.09-1.41.18-2.12.21a8.17,8.17,0,0,1-6.07-2c-2-1.73-3.49-4.08-5.57-5.64a.45.45,0,0,0-.15-.61,2.61,2.61,0,0,1-1-2.64,8,8,0,0,1,1.85-3.4.47.47,0,0,0,0-.64.46.46,0,0,0-.64,0,8.59,8.59,0,0,0-2.12,4,3.9,3.9,0,0,0,.37,2.26,7.86,7.86,0,0,0-1.09-.4,11,11,0,0,0-3-.38A5.63,5.63,0,0,0,46.3,16.5a5.52,5.52,0,0,0-1.23-4.06A5.45,5.45,0,0,0,43.19,11a.46.46,0,0,0-.46.79,4.73,4.73,0,0,1,2.42,2.63A4.58,4.58,0,0,1,44.94,18a4.77,4.77,0,0,1-1.35,1.67.37.37,0,0,0-.14.32c-2.45.15-4.92.7-7.36.56a6.9,6.9,0,0,1-5-2.48c-.39-.45-.77-.92-1.15-1.37a.45.45,0,0,0-.29-.6.52.52,0,0,1-.35-.3,1.57,1.57,0,0,1-.17-.57,5,5,0,0,1,.23-1.71,10.69,10.69,0,0,1,1.78-3.65.46.46,0,0,0-.79-.46,11.37,11.37,0,0,0-2,4.25,6.28,6.28,0,0,0-.16,1.48,4.74,4.74,0,0,0-1.5-.65l-.33-.06a4.21,4.21,0,0,0,1.83-2.34c.56-1.71.05-3.56-.42-5.22a.45.45,0,0,0-.87.24,8.74,8.74,0,0,1,.47,4.55,3,3,0,0,1-2.22,2.26.47.47,0,0,0-.45.4,31.43,31.43,0,0,1-3.88.11c-2-.22-2.9-1.72-3.8-3.37a5.46,5.46,0,0,0-2.21-2.52A8.62,8.62,0,0,0,17.73,7.2c1.74-1.52,1.94-4.14,4.07-5.33a5.55,5.55,0,0,1,2.72-.69A11.92,11.92,0,0,0,23,7a.46.46,0,0,0,.91,0,10.94,10.94,0,0,1,1.57-5.57.61.61,0,0,0,.05-.12,5.25,5.25,0,0,1,2.27,1c.91.71,1.37,1.85,2.33,2.51,1.16.82,2.52.42,3.83.36s2.46.73,3.63,1.44l.26.15a11.07,11.07,0,0,0-.42,8.79.47.47,0,0,0,.56.32.46.46,0,0,0,.32-.56,10.17,10.17,0,0,1,.36-8.16,8.09,8.09,0,0,0,2.51.53c1.39.07,2.77-.12,4.16-.13a8.38,8.38,0,0,1,4,.91c1.17.6,2.24,1.37,3.43,1.93a8,8,0,0,0,3.72.75c1.45-.05,2.9-.23,4.2.54-1.13,2.81-2.22,5.9-1.19,8.9a6.53,6.53,0,0,0,1,1.82c-.43.53-.88,1.05-1.36,1.55s.24,1.06.64.64a23.91,23.91,0,0,0,3.36-4.41.45.45,0,0,0-.78-.46,23.14,23.14,0,0,1-1.29,1.93c-1.54-2.15-1.13-5.11-.33-7.49.22-.65.47-1.3.73-1.94a21.59,21.59,0,0,0,2.18,1.74,5.62,5.62,0,0,0,3.73.61,20.76,20.76,0,0,1,4.45-.33A11.79,11.79,0,0,1,76,15.37c1.17.59,2.19,1.49,3.41,2,1.44.59,2.85.25,4.34.09a7.9,7.9,0,0,1,3.6.51h0a30.91,30.91,0,0,0-1.69,9.52c0,.57,0,1.14,0,1.71l-1.52-1a.46.46,0,0,0-.62.17.47.47,0,0,0,.16.62l2,1.34h0a.47.47,0,0,0,.46.46.58.58,0,0,0,.18,0l.5.33a.46.46,0,1,0,.46-.79l-.72-.47a30.33,30.33,0,0,1,.89-9.2q.3-1.17.69-2.31c1.28.55,2.52,1.25,3.82,1.76a7.37,7.37,0,0,1,1.29,8.19,7.73,7.73,0,0,1-1.49,2.09c-.42.41.22,1.05.64.64a8.24,8.24,0,0,0,1.71-9.34,7.88,7.88,0,0,0-.61-1.1l.54.11a6.84,6.84,0,0,0,1.63.09,20.91,20.91,0,0,1,2.22-.24c1.27,0,2.13,1,2.93,1.88a7.25,7.25,0,0,0,2.49,1.94,7.49,7.49,0,0,0,3.79.29,31.57,31.57,0,0,1,4-.44,5.7,5.7,0,0,1,1.1.11,30.86,30.86,0,0,0-1.5,8.84c0,.91,0,1.82.07,2.73a.47.47,0,0,0,.45.45.45.45,0,0,0,.46-.45,29.78,29.78,0,0,1,.84-9.4c.16-.65.35-1.3.56-1.95a11.89,11.89,0,0,1,1.77.75c1.12.56,2.2,1.21,3.37,1.67a8.11,8.11,0,0,0,3.87.46,13.41,13.41,0,0,1,4.38,0A12.81,12.81,0,0,1,130.43,29c1.07.65,2.07,1.39,3.07,2.14-.61.43-1.21.89-1.79,1.37a.46.46,0,0,0,.65.64,23.13,23.13,0,0,1,4.1-2.75c.52-.27.06-1.06-.46-.78s-1.16.64-1.72,1l-.09-.09c-.55-.42-1.12-.85-1.7-1.26a7,7,0,0,1,5.46-.78c1.86.5,3.17,1.87,4.57,3.1a10.68,10.68,0,0,0,2.28,1.61,6.86,6.86,0,0,0,3,.67c2.11,0,4.28-.62,6.36-.06h0a10.2,10.2,0,0,0-1.37,7,.45.45,0,0,0,.56.32.47.47,0,0,0,.32-.56A9.18,9.18,0,0,1,155,34.15c1.63.65,3.08,1.73,4.78,2.24a20.71,20.71,0,0,0,6.33.5,18.44,18.44,0,0,1,6.28.57c2,.67,3.68,2.09,5.66,2.83a25.66,25.66,0,0,0,5,1,9.05,9.05,0,0,1,4.46,1.55,4.85,4.85,0,0,1,.56.55.37.37,0,0,0,.22.33C190.42,44.9,189.17,48,187.76,49.22Z"/><path class="cls-8" d="M131.4,40.38Z"/><path class="cls-8" d="M131.55,40.91Z"/></g></g></svg>